<?xml version="1.0" encoding="UTF-8" standalone="no"?>
<svg
   xmlns:dc="http://purl.org/dc/elements/1.1/"
   xmlns:cc="http://creativecommons.org/ns#"
   xmlns:rdf="http://www.w3.org/1999/02/22-rdf-syntax-ns#"
   xmlns:svg="http://www.w3.org/2000/svg"
   xmlns="http://www.w3.org/2000/svg"
   width="417.56543pt"
   height="231.22511pt"
   version="1.2"
   viewBox="0 0 417.56543 231.22511"
   id="svg896">
  <metadata
     id="metadata2">
    <rdf:RDF>
      <cc:Work
         rdf:about="">
        <dc:format>image/svg+xml</dc:format>
        <dc:type
           rdf:resource="http://purl.org/dc/dcmitype/StillImage" />
        <dc:title></dc:title>
      </cc:Work>
    </rdf:RDF>
  </metadata>
  <defs
     id="defs112">
    <clipPath
       id="clip1">
      <path
         d="m 303,70 h 95.746 v 97 H 303 Z"
         id="path4" />
    </clipPath>
    <clipPath
       id="clip2">
      <path
         d="m 303,70 h 95.746 v 96 H 303 Z"
         id="path7" />
    </clipPath>
    <clipPath
       id="clip3">
      <path
         d="m 306,70 h 92.746 v 94 H 306 Z"
         id="path10" />
    </clipPath>
    <clipPath
       id="clip4">
      <path
         d="m 309,69 h 89.746 v 91 H 309 Z"
         id="path13" />
    </clipPath>
    <clipPath
       id="clip5">
      <path
         d="m 310,69 h 88.746 v 91 H 310 Z"
         id="path16" />
    </clipPath>
    <clipPath
       id="clip6">
      <path
         d="m 313,69 h 85.746 v 87 H 313 Z"
         id="path19" />
    </clipPath>
    <clipPath
       id="clip7">
      <path
         d="m 314,68 h 84.746 v 88 H 314 Z"
         id="path22" />
    </clipPath>
    <clipPath
       id="clip8">
      <path
         d="m 314,68 h 84.746 v 87 H 314 Z"
         id="path25" />
    </clipPath>
    <clipPath
       id="clip9">
      <path
         d="m 316,68 h 82.746 v 85 H 316 Z"
         id="path28" />
    </clipPath>
    <clipPath
       id="clip10">
      <path
         d="m 318,68 h 80.746 v 83 H 318 Z"
         id="path31" />
    </clipPath>
    <clipPath
       id="clip11">
      <path
         d="m 322,67 h 76.746 v 80 H 322 Z"
         id="path34" />
    </clipPath>
    <clipPath
       id="clip12">
      <path
         d="m 322,67 h 76.746 v 79 H 322 Z"
         id="path37" />
    </clipPath>
    <clipPath
       id="clip13">
      <path
         d="m 326,67 h 72.746 v 74 H 326 Z"
         id="path40" />
    </clipPath>
    <clipPath
       id="clip14">
      <path
         d="m 331,66 h 67.746 v 70 H 331 Z"
         id="path43" />
    </clipPath>
    <clipPath
       id="clip15">
      <path
         d="m 333,65 h 65.746 v 68 H 333 Z"
         id="path46" />
    </clipPath>
    <clipPath
       id="clip16">
      <path
         d="m 333,65 h 65.746 v 68 H 333 Z"
         id="path49" />
    </clipPath>
    <clipPath
       id="clip17">
      <path
         d="m 337,65 h 61.746 v 64 H 337 Z"
         id="path52" />
    </clipPath>
    <clipPath
       id="clip18">
      <path
         d="m 341,64 h 57.746 v 60 H 341 Z"
         id="path55" />
    </clipPath>
    <clipPath
       id="clip19">
      <path
         d="m 341,64 h 57.746 v 60 H 341 Z"
         id="path58" />
    </clipPath>
    <clipPath
       id="clip20">
      <path
         d="m 343,64 h 55.746 v 57 H 343 Z"
         id="path61" />
    </clipPath>
    <clipPath
       id="clip21">
      <path
         d="m 345,63 h 53.746 v 55 H 345 Z"
         id="path64" />
    </clipPath>
    <clipPath
       id="clip22">
      <path
         d="m 345,63 h 6 v 6 h -6 z"
         id="path67" />
    </clipPath>
    <clipPath
       id="clip23">
      <path
         d="m 349,63 h 49.746 v 51 H 349 Z"
         id="path70" />
    </clipPath>
    <clipPath
       id="clip24">
      <path
         d="m 349,63 h 6 v 6 h -6 z"
         id="path73" />
    </clipPath>
    <clipPath
       id="clip25">
      <path
         d="m 350,63 h 48.746 v 49 H 350 Z"
         id="path76" />
    </clipPath>
    <clipPath
       id="clip26">
      <path
         d="m 350,63 h 6 v 5 h -6 z"
         id="path79" />
    </clipPath>
    <clipPath
       id="clip27">
      <path
         d="m 357,63 h 41.746 v 43 H 357 Z"
         id="path82" />
    </clipPath>
    <clipPath
       id="clip28">
      <path
         d="m 357,63 h 5 v 6 h -5 z"
         id="path85" />
    </clipPath>
    <clipPath
       id="clip29">
      <path
         d="m 358,64 h 40.746 v 41 H 358 Z"
         id="path88" />
    </clipPath>
    <clipPath
       id="clip30">
      <path
         d="m 358,64 h 6 v 5 h -6 z"
         id="path91" />
    </clipPath>
    <clipPath
       id="clip31">
      <path
         d="m 361,64 h 37.746 v 38 H 361 Z"
         id="path94" />
    </clipPath>
    <clipPath
       id="clip32">
      <path
         d="m 366,65 h 32.746 V 98 H 366 Z"
         id="path97" />
    </clipPath>
    <clipPath
       id="clip33">
      <path
         d="m 370,66 h 28.746 V 95 H 370 Z"
         id="path100" />
    </clipPath>
    <clipPath
       id="clip34">
      <path
         d="m 154,164 h 1 v 63.578 h -1 z"
         id="path103" />
    </clipPath>
    <clipPath
       id="clip35">
      <path
         d="m 142,214 h 18 v 13.578 h -18 z"
         id="path106" />
    </clipPath>
    <clipPath
       id="clip36">
      <path
         d="m 27.273,124 h 1.7266 v 2 H 27.273 Z"
         id="path109" />
    </clipPath>
  </defs>
  <rect
     style="fill:#ffffff;stroke:#ffffff;stroke-width:0;stroke-linecap:round;stroke-miterlimit:4;stroke-dasharray:none"
     id="rect1292"
     width="416.71503"
     height="230.37473"
     x="0.45928332"
     y="0.73397553" />
  <g
     fill="none"
     stroke="#000000"
     stroke-miterlimit="10"
     stroke-width="0.16639"
     id="g332"
     transform="translate(-10.980938,0.06522509)">
    <path
       d="m 289.01,175.49 -0.58203,-0.58203"
       id="path114" />
    <path
       d="m 293.75,178.07 -1.1641,-0.99609"
       id="path116" />
    <path
       d="m 292.59,177.07 -4.9062,-4.9102"
       id="path118" />
    <path
       d="m 295.84,179.4 -3.2461,-3.4922"
       id="path120" />
    <path
       d="m 292.59,175.91 -5.0742,-5.0781"
       id="path122" />
    <path
       d="m 296.5,179.82 -3.9102,-4.1602"
       id="path124" />
    <path
       d="m 292.59,175.66 -5.3242,-5.2422"
       id="path126" />
    <path
       d="m 305.82,185.06 -4.4922,-4.4922"
       id="path128" />
    <path
       d="m 301.33,180.57 -9.3203,-9.3984"
       id="path130" />
    <path
       d="m 292.01,171.17 -6.0742,-5.9922"
       id="path132" />
    <path
       d="m 308.98,186.81 -6.0742,-6.0742"
       id="path134" />
    <path
       d="M 302.91,180.73 291.762,169.664"
       id="path136" />
    <path
       d="m 291.76,169.67 -6.4062,-6.4883"
       id="path138" />
    <path
       d="m 313.47,186.81 -5.3242,-5.2422"
       id="path140" />
    <path
       d="M 308.15,181.57 291.427,164.765"
       id="path142" />
    <path
       d="m 291.43,164.76 -7.6523,-7.5742"
       id="path144" />
    <path
       d="m 318.13,186.39 -4.0781,-4.0742"
       id="path146" />
    <path
       d="M 314.05,182.32 290.757,159.273"
       id="path148" />
    <path
       d="m 290.76,159.27 -7.4062,-7.4062"
       id="path150" />
    <path
       d="m 319.46,186.39 -3.4961,-3.6602"
       id="path152" />
    <path
       d="M 315.97,182.73 290.595,157.355"
       id="path154" />
    <path
       d="m 290.59,157.36 -7.4062,-7.2383"
       id="path156" />
    <path
       d="m 321.04,186.23 -3.3281,-3.3281"
       id="path158" />
    <path
       d="M 317.71,182.9 290.421,155.611"
       id="path160" />
    <path
       d="m 290.43,155.61 -7.2383,-7.2383"
       id="path162" />
    <path
       d="m 323.54,186.06 -2.4961,-2.5781"
       id="path164" />
    <path
       d="M 321.04,183.48 290.009,152.445"
       id="path166" />
    <path
       d="m 290.01,152.45 -6.9883,-6.9883"
       id="path168" />
    <path
       d="m 328.86,185.64 -1.1641,-1.168"
       id="path170" />
    <path
       d="M 327.7,184.48 289.43,146.046"
       id="path172" />
    <path
       d="m 289.43,146.04 -6.6562,-6.6523"
       id="path174" />
    <path
       d="M 332.94,185.23 288.846,141.136"
       id="path176" />
    <path
       d="m 288.85,141.13 -6.4062,-6.2422"
       id="path178" />
    <path
       d="m 337.6,185.81 -1,-0.91406"
       id="path180" />
    <path
       d="M 336.6,184.89 288.428,136.636"
       id="path182" />
    <path
       d="m 288.43,136.64 -5.4062,-5.4102"
       id="path184" />
    <path
       d="m 339.18,186.23 -1.3281,-1.332"
       id="path186" />
    <path
       d="M 337.85,184.89 288.264,135.304"
       id="path188" />
    <path
       d="m 288.27,135.31 -5.2422,-5.2422"
       id="path190" />
    <path
       d="m 344.26,186.81 -2.582,-2.332"
       id="path192" />
    <path
       d="M 341.68,184.48 287.688,130.402"
       id="path194" />
    <path
       d="m 287.68,130.4 -4.0781,-4.2422"
       id="path196" />
    <path
       d="m 347.17,187.39 -3.0781,-3.1602"
       id="path198" />
    <path
       d="M 344.09,184.23 287.516,127.742"
       id="path200" />
    <path
       d="m 287.52,127.74 -3.7422,-3.7461"
       id="path202" />
    <path
       d="m 347.75,187.39 -3.0781,-3.1602"
       id="path204" />
    <path
       d="M 344.67,184.23 287.264,126.91"
       id="path206" />
    <path
       d="m 287.27,126.91 -3.4922,-3.3281"
       id="path208" />
    <path
       d="m 352.24,188.14 -4.0742,-4.2461"
       id="path210" />
    <path
       d="M 348.17,183.89 286.936,122.66"
       id="path212" />
    <path
       d="m 286.93,122.66 -2.5781,-2.582"
       id="path214" />
    <path
       d="m 352.82,188.14 -4.3242,-4.2461"
       id="path216" />
    <path
       d="M 348.5,183.89 286.934,122.242"
       id="path218" />
    <path
       d="m 286.93,122.25 -2.5781,-2.5781"
       id="path220" />
    <path
       d="m 358.9,189.14 -5.6562,-5.6562"
       id="path222" />
    <path
       d="M 353.24,183.48 286.349,116.421"
       id="path224" />
    <path
       d="m 286.35,116.42 -1.4141,-1.4141"
       id="path226" />
    <path
       d="m 362.39,188.55 -5.4922,-5.4922"
       id="path228" />
    <path
       d="M 356.9,183.06 285.767,111.927"
       id="path230" />
    <path
       d="m 285.77,111.93 -0.41797,-0.41406"
       id="path232" />
    <path
       d="m 363.97,187.97 -5.0742,-5.0742"
       id="path234" />
    <path
       d="M 358.9,182.9 285.521,109.603"
       id="path236" />
    <path
       d="m 366.89,187.22 -4.4922,-4.4922"
       id="path238" />
    <path
       d="M 362.39,182.73 285.929,106.273"
       id="path240" />
    <path
       d="m 285.93,106.27 -0.74609,-0.83203"
       id="path242" />
    <path
       d="m 370.8,186.06 -3.7461,-3.7422"
       id="path244" />
    <path
       d="M 367.05,182.32 286.519,101.785"
       id="path246" />
    <path
       d="m 286.52,101.78 -1.9102,-2.1641"
       id="path248" />
    <path
       d="m 371.79,185.64 -3.5742,-3.4961"
       id="path250" />
    <path
       d="M 368.22,182.15 286.685,100.619"
       id="path252" />
    <path
       d="m 286.68,100.61 -2.3281,-2.3281"
       id="path254" />
    <path
       d="m 375.46,184.48 -2.7461,-2.7422"
       id="path256" />
    <path
       d="M 372.71,181.73 287.101,96.117"
       id="path258" />
    <path
       d="m 287.1,96.121 -3.3281,-3.3281"
       id="path260" />
    <path
       d="m 377.45,183.89 -2.4141,-2.3281"
       id="path262" />
    <path
       d="M 375.04,181.57 287.517,93.965"
       id="path264" />
    <path
       d="m 287.52,93.961 -3.9102,-3.9102"
       id="path266" />
    <path
       d="m 378.2,183.64 -2.3281,-2.0781"
       id="path268" />
    <path
       d="M 375.87,181.57 287.515,92.965"
       id="path270" />
    <path
       d="m 287.52,92.961 -3.7422,-3.6602"
       id="path272" />
    <path
       d="m 381.86,182.48 -1.5,-1.332"
       id="path274" />
    <path
       d="M 380.36,181.15 288.094,88.72"
       id="path276" />
    <path
       d="m 288.1,88.719 -3.7422,-3.5781"
       id="path278" />
    <path
       d="m 382.86,182.32 -1.1641,-1.332"
       id="path280" />
    <path
       d="M 381.7,180.98 288.27,87.55"
       id="path282" />
    <path
       d="m 288.27,87.555 -3.6602,-3.5781"
       id="path284" />
    <path
       d="m 383.28,182.15 -1.168,-1.1641"
       id="path286" />
    <path
       d="M 382.11,180.98 288.266,87.132"
       id="path288" />
    <path
       d="m 288.27,87.137 -3.6602,-3.7422"
       id="path290" />
    <path
       d="M 385.02,180.57 288.676,84.23"
       id="path292" />
    <path
       d="m 288.68,84.227 -3.4922,-3.4961"
       id="path294" />
    <path
       d="M 387.52,178.65 289.016,80.146"
       id="path296" />
    <path
       d="m 289.01,80.148 -3.2422,-3.5781"
       id="path298" />
    <path
       d="M 389.93,176.66 289.59,76.24"
       id="path300" />
    <path
       d="m 289.59,76.238 -0.58203,-0.41797"
       id="path302" />
    <path
       d="m 289.01,75.82 -2.6602,-2.7422"
       id="path304" />
    <path
       d="M 390.85,175.91 290.6,75.41"
       id="path306" />
    <path
       d="m 290.59,75.406 -0.75,-0.75"
       id="path308" />
    <path
       d="m 289.84,74.656 -3.3281,-3.1602"
       id="path310" />
    <path
       d="M 392.59,174.5 293.168,75.078"
       id="path312" />
    <path
       d="m 293.17,75.074 -3.1602,-3.1641"
       id="path314" />
    <path
       d="m 290.01,71.91 -1.582,-1.5781"
       id="path316" />
    <path
       d="M 393.59,173.75 294.668,74.828"
       id="path318" />
    <path
       d="m 294.67,74.824 -4.4922,-4.4922"
       id="path320" />
    <path
       d="m 290.18,70.332 -0.75,-0.58203"
       id="path322" />
    <path
       d="M 394.34,172 297.082,74.41"
       id="path324" />
    <path
       d="m 297.08,74.406 -5.9062,-5.8242"
       id="path326" />
    <path
       d="M 395.17,167.67 301.326,73.822"
       id="path328" />
    <path
       d="m 301.33,73.824 -6.9922,-6.9883"
       id="path330" />
  </g>
  <g
     clip-path="url(#clip1)"
     id="g336"
     transform="translate(-10.980938,0.06522509)">
    <path
       transform="scale(1,-1)"
       d="M 395.92,-163.76 305.4,-73.076"
       fill="none"
       stroke="#000000"
       stroke-miterlimit="10"
       stroke-width="0.16639"
       id="path334" />
  </g>
  <path
     d="m 294.41906,73.143225 -8.1523,-7.9883"
     fill="none"
     stroke="#000000"
     stroke-miterlimit="10"
     stroke-width="0.16639"
     id="path338" />
  <g
     clip-path="url(#clip2)"
     id="g342"
     transform="translate(-10.980938,0.06522509)">
    <path
       transform="scale(1,-1)"
       d="m 395.92,-163.59 -90.27,90.516"
       fill="none"
       stroke="#000000"
       stroke-miterlimit="10"
       stroke-width="0.16639"
       id="path340" />
  </g>
  <path
     d="m 294.66906,73.143225 -8.2344,-8.1562"
     fill="none"
     stroke="#000000"
     stroke-miterlimit="10"
     stroke-width="0.16639"
     id="path344" />
  <g
     clip-path="url(#clip3)"
     id="g348"
     transform="translate(-10.980938,0.06522509)">
    <path
       transform="scale(1,-1)"
       d="m 396.5,-160.85 -88.105,88.191"
       fill="none"
       stroke="#000000"
       stroke-miterlimit="10"
       stroke-width="0.16639"
       id="path346" />
  </g>
  <path
     d="m 297.41906,72.725225 -8.8203,-8.9023"
     fill="none"
     stroke="#000000"
     stroke-miterlimit="10"
     stroke-width="0.16639"
     id="path350" />
  <g
     clip-path="url(#clip4)"
     id="g354"
     transform="translate(-10.980938,0.06522509)">
    <path
       transform="scale(1,-1)"
       d="m 397.09,-157.19 -85.027,85.109"
       fill="none"
       stroke="#000000"
       stroke-miterlimit="10"
       stroke-width="0.16639"
       id="path352" />
  </g>
  <path
     d="m 301.07906,72.143225 -9.7344,-9.8984"
     fill="none"
     stroke="#000000"
     stroke-miterlimit="10"
     stroke-width="0.16639"
     id="path356" />
  <g
     clip-path="url(#clip5)"
     id="g360"
     transform="translate(-10.980938,0.06522509)">
    <path
       transform="scale(1,-1)"
       d="m 397.34,-156.94 -84.859,84.863"
       fill="none"
       stroke="#000000"
       stroke-miterlimit="10"
       stroke-width="0.16639"
       id="path358" />
  </g>
  <path
     d="m 301.49906,72.143225 -9.9844,-9.8984"
     fill="none"
     stroke="#000000"
     stroke-miterlimit="10"
     stroke-width="0.16639"
     id="path362" />
  <g
     clip-path="url(#clip6)"
     id="g366"
     transform="translate(-10.980938,0.06522509)">
    <path
       transform="scale(1,-1)"
       d="m 397.67,-153.03 -81.531,81.535"
       fill="none"
       stroke="#000000"
       stroke-miterlimit="10"
       stroke-width="0.16639"
       id="path364" />
  </g>
  <path
     d="m 305.15906,71.561225 -10.152,-10.148"
     fill="none"
     stroke="#000000"
     stroke-miterlimit="10"
     stroke-width="0.16639"
     id="path368" />
  <g
     clip-path="url(#clip7)"
     id="g372"
     transform="translate(-10.980938,0.06522509)">
    <path
       transform="scale(1,-1)"
       d="m 397.67,-152.7 -81.281,81.367"
       fill="none"
       stroke="#000000"
       stroke-miterlimit="10"
       stroke-width="0.16639"
       id="path370" />
  </g>
  <path
     d="m 305.40906,71.393225 -9.9844,-9.9805"
     fill="none"
     stroke="#000000"
     stroke-miterlimit="10"
     stroke-width="0.16639"
     id="path374" />
  <g
     clip-path="url(#clip8)"
     id="g378"
     transform="translate(-10.980938,0.06522509)">
    <path
       transform="scale(1,-1)"
       d="m 397.92,-151.7 -80.617,80.371"
       fill="none"
       stroke="#000000"
       stroke-miterlimit="10"
       stroke-width="0.16639"
       id="path376" />
  </g>
  <path
     d="m 306.31906,71.393225 -9.9023,-9.9805"
     fill="none"
     stroke="#000000"
     stroke-miterlimit="10"
     stroke-width="0.16639"
     id="path380" />
  <g
     clip-path="url(#clip9)"
     id="g384"
     transform="translate(-10.980938,0.06522509)">
    <path
       transform="scale(1,-1)"
       d="m 397.92,-149.95 -79.035,79.035"
       fill="none"
       stroke="#000000"
       stroke-miterlimit="10"
       stroke-width="0.16639"
       id="path382" />
  </g>
  <path
     d="m 307.89906,70.979225 -9.5703,-9.5664"
     fill="none"
     stroke="#000000"
     stroke-miterlimit="10"
     stroke-width="0.16639"
     id="path386" />
  <g
     clip-path="url(#clip10)"
     id="g390"
     transform="translate(-10.980938,0.06522509)">
    <path
       transform="scale(1,-1)"
       d="m 398.09,-147.79 -77.043,77.043"
       fill="none"
       stroke="#000000"
       stroke-miterlimit="10"
       stroke-width="0.16639"
       id="path388" />
  </g>
  <path
     d="m 310.05906,70.811225 -9.3984,-9.3984"
     fill="none"
     stroke="#000000"
     stroke-miterlimit="10"
     stroke-width="0.16639"
     id="path392" />
  <g
     clip-path="url(#clip11)"
     id="g396"
     transform="translate(-10.980938,0.06522509)">
    <path
       transform="scale(1,-1)"
       d="m 398.09,-143.88 -73.547,73.715"
       fill="none"
       stroke="#000000"
       stroke-miterlimit="10"
       stroke-width="0.16639"
       id="path394" />
  </g>
  <path
     d="m 313.55906,70.229225 -8.7344,-8.8164"
     fill="none"
     stroke="#000000"
     stroke-miterlimit="10"
     stroke-width="0.16639"
     id="path398" />
  <g
     clip-path="url(#clip12)"
     id="g402"
     transform="translate(-10.980938,0.06522509)">
    <path
       transform="scale(1,-1)"
       d="m 398.25,-143.3 -73.297,73.297"
       fill="none"
       stroke="#000000"
       stroke-miterlimit="10"
       stroke-width="0.16639"
       id="path400" />
  </g>
  <path
     d="m 313.96906,70.065225 -8.8164,-8.6523"
     fill="none"
     stroke="#000000"
     stroke-miterlimit="10"
     stroke-width="0.16639"
     id="path404" />
  <g
     clip-path="url(#clip13)"
     id="g408"
     transform="translate(-10.980938,0.06522509)">
    <path
       transform="scale(1,-1)"
       d="m 398.25,-138.47 -69.051,69.051"
       fill="none"
       stroke="#000000"
       stroke-miterlimit="10"
       stroke-width="0.16639"
       id="path406" />
  </g>
  <path
     d="m 318.21906,69.479225 -7.9883,-8.0664"
     fill="none"
     stroke="#000000"
     stroke-miterlimit="10"
     stroke-width="0.16639"
     id="path410" />
  <g
     clip-path="url(#clip14)"
     id="g414"
     transform="translate(-10.980938,0.06522509)">
    <path
       transform="scale(1,-1)"
       d="m 398.25,-133.39 -64.559,64.809"
       fill="none"
       stroke="#000000"
       stroke-miterlimit="10"
       stroke-width="0.16639"
       id="path412" />
  </g>
  <path
     d="m 322.70906,68.647225 -7.4062,-7.2344"
     fill="none"
     stroke="#000000"
     stroke-miterlimit="10"
     stroke-width="0.16639"
     id="path416" />
  <g
     clip-path="url(#clip15)"
     id="g420"
     transform="translate(-10.980938,0.06522509)">
    <path
       transform="scale(1,-1)"
       d="m 398.09,-130.23 -62.066,61.984"
       fill="none"
       stroke="#000000"
       stroke-miterlimit="10"
       stroke-width="0.16639"
       id="path418" />
  </g>
  <path
     d="m 325.03906,68.315225 -6.8203,-6.9023"
     fill="none"
     stroke="#000000"
     stroke-miterlimit="10"
     stroke-width="0.16639"
     id="path422" />
  <g
     clip-path="url(#clip16)"
     id="g426"
     transform="translate(-10.980938,0.06522509)">
    <path
       transform="scale(1,-1)"
       d="m 398.09,-130.07 -61.816,61.816"
       fill="none"
       stroke="#000000"
       stroke-miterlimit="10"
       stroke-width="0.16639"
       id="path424" />
  </g>
  <path
     d="m 325.28906,68.315225 -6.8242,-6.9023"
     fill="none"
     stroke="#000000"
     stroke-miterlimit="10"
     stroke-width="0.16639"
     id="path428" />
  <g
     clip-path="url(#clip17)"
     id="g432"
     transform="translate(-10.980938,0.06522509)">
    <path
       transform="scale(1,-1)"
       d="m 397.92,-125.74 -57.988,58.156"
       fill="none"
       stroke="#000000"
       stroke-miterlimit="10"
       stroke-width="0.16639"
       id="path430" />
  </g>
  <path
     d="m 328.94906,67.651225 -5.6562,-5.4062"
     fill="none"
     stroke="#000000"
     stroke-miterlimit="10"
     stroke-width="0.16639"
     id="path434" />
  <g
     clip-path="url(#clip18)"
     id="g438"
     transform="translate(-10.980938,0.06522509)">
    <path
       transform="scale(1,-1)"
       d="m 397.67,-121.5 -54.16,54.492"
       fill="none"
       stroke="#000000"
       stroke-miterlimit="10"
       stroke-width="0.16639"
       id="path436" />
  </g>
  <path
     d="m 332.52906,67.069225 -4.1602,-4.0781"
     fill="none"
     stroke="#000000"
     stroke-miterlimit="10"
     stroke-width="0.16639"
     id="path440" />
  <g
     clip-path="url(#clip19)"
     id="g444"
     transform="translate(-10.980938,0.06522509)">
    <path
       transform="scale(1,-1)"
       d="m 397.67,-121.08 -53.992,54.078"
       fill="none"
       stroke="#000000"
       stroke-miterlimit="10"
       stroke-width="0.16639"
       id="path442" />
  </g>
  <path
     d="m 332.69906,67.069225 -4.0781,-4.0781"
     fill="none"
     stroke="#000000"
     stroke-miterlimit="10"
     stroke-width="0.16639"
     id="path446" />
  <g
     clip-path="url(#clip20)"
     id="g450"
     transform="translate(-10.980938,0.06522509)">
    <path
       transform="scale(1,-1)"
       d="m 397.67,-117.92 -51.496,51.25"
       fill="none"
       stroke="#000000"
       stroke-miterlimit="10"
       stroke-width="0.16639"
       id="path448" />
  </g>
  <path
     d="m 335.18906,66.737225 -2.9102,-3.1641"
     fill="none"
     stroke="#000000"
     stroke-miterlimit="10"
     stroke-width="0.16639"
     id="path452" />
  <g
     id="g498"
     transform="translate(-10.980938,0.06522509)">
    <g
       clip-path="url(#clip21)"
       id="g456">
      <path
         transform="scale(1,-1)"
         d="m 397.5,-115.43 -49.172,49.172"
         fill="none"
         stroke="#000000"
         stroke-miterlimit="10"
         stroke-width="0.16639"
         id="path454" />
    </g>
    <g
       clip-path="url(#clip22)"
       id="g460">
      <path
         d="m 348.33,66.254 -2.1641,-2.1641"
         fill="none"
         stroke="#000000"
         stroke-miterlimit="10"
         stroke-width="0.16639"
         id="path458" />
    </g>
    <g
       clip-path="url(#clip23)"
       id="g464">
      <path
         transform="scale(1,-1)"
         d="m 397.34,-111.52 -45.676,45.844"
         fill="none"
         stroke="#000000"
         stroke-miterlimit="10"
         stroke-width="0.16639"
         id="path462" />
    </g>
    <g
       clip-path="url(#clip24)"
       id="g468">
      <path
         d="m 351.66,65.672 -0.99609,-0.75"
         fill="none"
         stroke="#000000"
         stroke-miterlimit="10"
         stroke-width="0.16639"
         id="path466" />
    </g>
    <g
       clip-path="url(#clip25)"
       id="g472">
      <path
         transform="scale(1,-1)"
         d="m 397.34,-109.6 -44.094,44.094"
         fill="none"
         stroke="#000000"
         stroke-miterlimit="10"
         stroke-width="0.16639"
         id="path470" />
    </g>
    <g
       clip-path="url(#clip26)"
       id="g476">
      <path
         d="m 353.24,65.504 -0.41797,-0.41406"
         fill="none"
         stroke="#000000"
         stroke-miterlimit="10"
         stroke-width="0.16639"
         id="path474" />
    </g>
    <g
       clip-path="url(#clip27)"
       id="g480">
      <path
         transform="scale(1,-1)"
         d="m 396.75,-103.28 -37.105,37.023"
         fill="none"
         stroke="#000000"
         stroke-miterlimit="10"
         stroke-width="0.16639"
         id="path478" />
    </g>
    <g
       clip-path="url(#clip28)"
       id="g484">
      <path
         d="m 359.65,66.254 -1.582,-1.582"
         fill="none"
         stroke="#000000"
         stroke-miterlimit="10"
         stroke-width="0.16639"
         id="path482" />
    </g>
    <g
       clip-path="url(#clip29)"
       id="g488">
      <path
         transform="scale(1,-1)"
         d="m 396.75,-102.11 -35.941,35.691"
         fill="none"
         stroke="#000000"
         stroke-miterlimit="10"
         stroke-width="0.16639"
         id="path486" />
    </g>
    <g
       clip-path="url(#clip30)"
       id="g492">
      <path
         d="m 360.81,66.422 -1.9141,-1.9141"
         fill="none"
         stroke="#000000"
         stroke-miterlimit="10"
         stroke-width="0.16639"
         id="path490" />
    </g>
    <g
       clip-path="url(#clip31)"
       id="g496">
      <path
         transform="scale(1,-1)"
         d="m 396.34,-99.449 -32.199,32.445"
         fill="none"
         stroke="#000000"
         stroke-miterlimit="10"
         stroke-width="0.16639"
         id="path494" />
    </g>
  </g>
  <path
     d="m 353.15906,67.069225 -2.9102,-2.6641"
     fill="none"
     stroke="#000000"
     stroke-miterlimit="10"
     stroke-width="0.16639"
     id="path500" />
  <g
     clip-path="url(#clip32)"
     id="g504"
     transform="translate(-10.980938,0.06522509)">
    <path
       transform="scale(1,-1)"
       d="m 396.17,-94.707 -26.957,26.871"
       fill="none"
       stroke="#000000"
       stroke-miterlimit="10"
       stroke-width="0.16639"
       id="path502" />
  </g>
  <path
     d="m 358.22906,67.901225 -4.3242,-4.0781"
     fill="none"
     stroke="#000000"
     stroke-miterlimit="10"
     stroke-width="0.16639"
     id="path506" />
  <g
     clip-path="url(#clip33)"
     id="g510"
     transform="translate(-10.980938,0.06522509)">
    <path
       transform="scale(1,-1)"
       d="m 395.75,-91.797 -23.211,23.379"
       fill="none"
       stroke="#000000"
       stroke-miterlimit="10"
       stroke-width="0.16639"
       id="path508" />
  </g>
  <g
     fill="none"
     stroke="#000000"
     stroke-miterlimit="10"
     stroke-width="0.16639"
     id="g526"
     transform="translate(-10.980938,0.06522509)">
    <path
       d="m 372.54,68.418 -5.2422,-5.0742"
       id="path512" />
    <path
       d="M 395.59,88.137 376.453,69.168"
       id="path514" />
    <path
       d="m 376.45,69.168 -6.2383,-6.4062"
       id="path516" />
    <path
       d="M 392.59,81.645 380.942,70"
       id="path518" />
    <path
       d="m 380.95,70 -7.6523,-7.6562"
       id="path520" />
    <path
       d="M 392.59,81.645 380.942,70"
       id="path522" />
    <path
       d="m 380.95,70 -7.6523,-7.6562"
       id="path524" />
  </g>
  <path
     d="m 294.25906,85.870225 h 75.875 v 78.957005 h -75.875 z"
     fill="#ffffff"
     fill-rule="evenodd"
     stroke="#ffffff"
     stroke-miterlimit="10"
     stroke-width="0.12"
     id="path528" />
  <path
     d="m 294.25906,85.870225 h 75.875 v 78.957005 h -75.875 z"
     fill="none"
     stroke-width="0.74877"
     id="path530"
     style="stroke:#000000;stroke-miterlimit:10" />
  <path
     d="m 154.49906,125.22523 h 69.055"
     fill="none"
     stroke-width="0.74877"
     id="path532"
     style="stroke:#000000;stroke-miterlimit:10" />
  <path
     d="m 228.04906,125.22523 -4.6602,-2.332 v 4.6602 z"
     fill-rule="evenodd"
     stroke-width="0.12"
     id="path534"
     style="stroke:#000000;stroke-miterlimit:10" />
  <path
     d="m 154.49906,85.870225 v -68.887"
     fill="none"
     stroke-width="0.74877"
     id="path536"
     style="stroke:#000000;stroke-miterlimit:10" />
  <path
     d="m 154.49906,12.323225 -2.3281,4.8281 h 4.8242 z"
     fill-rule="evenodd"
     stroke-width="0.12"
     id="path538"
     style="stroke:#000000;stroke-miterlimit:10" />
  <path
     d="M 332.27906,125.38523 V 56.330225"
     fill="none"
     stroke-width="0.74877"
     id="path540"
     style="stroke:#000000;stroke-miterlimit:10" />
  <path
     d="m 332.27906,51.924225 -2.4961,4.6602 h 4.8242 z"
     fill-rule="evenodd"
     stroke-width="0.12"
     id="path542"
     style="stroke:#000000;stroke-miterlimit:10" />
  <path
     d="m 335.02515,125.38538 h 69.055"
     fill="none"
     stroke-width="0.74877"
     id="path544"
     style="stroke:#000000;stroke-miterlimit:10" />
  <path
     d="m 405.57515,125.38538 -4.9102,2.4141 v -4.9102 z"
     fill-rule="evenodd"
     stroke-width="0.12"
     id="path546"
     style="stroke:#000000;stroke-miterlimit:10" />
  <g
     clip-path="url(#clip34)"
     id="g552"
     transform="translate(1.0190621,0.06522509)">
    <path
       transform="scale(1,-1)"
       d="m 154.48,-164.59 v -62.23"
       fill="none"
       stroke="#000000"
       stroke-miterlimit="10"
       stroke-width="0.74877"
       id="path550" />
  </g>
  <g
     fill="none"
     stroke="#000000"
     stroke-miterlimit="10"
     stroke-width="0.41598"
     id="g572"
     transform="translate(1.0190621,0.06522509)">
    <path
       d="m 146.99,85.805 6.0742,-6.0703"
       id="path554" />
    <path
       d="m 146.99,78.734 6.0742,-6.2383"
       id="path556" />
    <path
       d="m 145.99,71.496 6.0742,-5.9922"
       id="path558" />
    <path
       d="m 146.99,64.34 6.0742,-6.0742"
       id="path560" />
    <path
       d="m 146.99,57.27 6.0742,-6.2383"
       id="path562" />
    <path
       d="m 146.99,50.031 6.0742,-5.9922"
       id="path564" />
    <path
       d="m 146.99,43.043 6.0742,-6.2422"
       id="path566" />
    <path
       d="m 146.99,35.805 6.0742,-5.9922"
       id="path568" />
    <path
       d="m 146.99,28.648 6.0742,-6.0742"
       id="path570" />
  </g>
  <g
     clip-path="url(#clip35)"
     id="g576"
     transform="translate(1.0190621,0.06522509)">
    <path
       transform="scale(1,-1)"
       d="m 147.99,-226.82 6.0742,6.2383"
       fill="none"
       stroke="#000000"
       stroke-miterlimit="10"
       stroke-width="0.41598"
       id="path574" />
  </g>
  <g
     fill="none"
     stroke="#000000"
     stroke-miterlimit="10"
     stroke-width="0.41598"
     id="g594"
     transform="translate(1.0190621,0.06522509)">
    <path
       d="m 147.99,219.59 6.0742,-6.0703"
       id="path578" />
    <path
       d="m 147.99,212.6 6.0742,-6.3203"
       id="path580" />
    <path
       d="m 147.99,205.36 6.0742,-6.0703"
       id="path582" />
    <path
       d="m 147.99,198.29 6.0742,-5.9922"
       id="path584" />
    <path
       d="m 147.99,191.13 6.0742,-6.0742"
       id="path586" />
    <path
       d="m 147.99,184.06 6.0742,-5.9922"
       id="path588" />
    <path
       d="m 147.99,177.07 6.0742,-6.2422"
       id="path590" />
    <path
       d="m 147.99,170.84 6.0742,-6.0742"
       id="path592" />
  </g>
  <path
     d="m 279.86326,118.2388 1.75,0.58203 1.5781,1.2461 1,1.75 0.33203,2.0781 -0.33203,2.1641 -1,1.7461 -1.5781,1.1641 -1.75,0.41797 -1.7461,-0.41797 -1.5781,-1.1641 -0.91797,-1.7461 -0.25,-2.1641 0.25,-2.0781 0.91797,-1.75 1.5781,-1.2461 z"
     fill="#ffffff"
     fill-rule="evenodd"
     stroke="#ffffff"
     stroke-miterlimit="10"
     stroke-width="0.12"
     id="path596" />
  <path
     d="m 332.27906,170.31523 1.7461,0.33594 1.4141,1.1641 1.168,1.8281 0.16406,2.082 -0.16406,2.1602 -1.168,1.75 -1.4141,1.1641 -1.7461,0.41406 -1.7461,-0.41406 -1.582,-1.1641 -0.91406,-1.75 -0.41797,-2.1602 0.41797,-2.082 0.91406,-1.8281 1.582,-1.1641 z"
     fill="#ffffff"
     fill-rule="evenodd"
     stroke="#ffffff"
     stroke-miterlimit="10"
     stroke-width="0.12"
     id="path598" />
  <g
     fill="none"
     stroke="#000000"
     stroke-miterlimit="10"
     stroke-width="0.41598"
     id="g706"
     transform="translate(1.0190621,0.06522509)">
    <path
       d="m 152.9,125.16 h -1.9141"
       id="path600" />
    <path
       d="m 149.74,125.16 h -0.33594"
       id="path602" />
    <path
       d="m 148.24,125.16 h -1.9961"
       id="path604" />
    <path
       d="m 145.08,125.16 h -0.41797"
       id="path606" />
    <path
       d="m 143.5,125.16 h -1.9141"
       id="path608" />
    <path
       d="m 140.42,125.16 h -0.41406"
       id="path610" />
    <path
       d="m 138.84,125.16 h -1.9102"
       id="path612" />
    <path
       d="m 135.76,125.16 h -0.41406"
       id="path614" />
    <path
       d="m 134.18,125.16 h -1.9961"
       id="path616" />
    <path
       d="m 131.02,125.16 h -0.33203"
       id="path618" />
    <path
       d="m 129.52,125.16 h -1.9961"
       id="path620" />
    <path
       d="m 126.36,125.16 h -0.41797"
       id="path622" />
    <path
       d="m 124.78,125.16 h -1.9141"
       id="path624" />
    <path
       d="m 121.7,125.16 h -0.41797"
       id="path626" />
    <path
       d="m 120.12,125.16 h -1.9141"
       id="path628" />
    <path
       d="m 117.04,125.16 h -0.41406"
       id="path630" />
    <path
       d="m 115.46,125.16 h -2"
       id="path632" />
    <path
       d="m 112.3,125.16 h -0.33203"
       id="path634" />
    <path
       d="m 110.72,125.16 h -1.9141"
       id="path636" />
    <path
       d="m 107.64,125.16 h -0.41406"
       id="path638" />
    <path
       d="m 106.06,125.16 h -1.9141"
       id="path640" />
    <path
       d="m 102.98,125.16 h -0.41797"
       id="path642" />
    <path
       d="M 101.4,125.16 H 99.4859"
       id="path644" />
    <path
       d="M 98.242,125.16 H 97.90997"
       id="path646" />
    <path
       d="M 96.742,125.16 H 94.7459"
       id="path648" />
    <path
       d="M 93.582,125.16 H 93.16794"
       id="path650" />
    <path
       d="M 92,125.16 H 90.0898"
       id="path652" />
    <path
       d="M 88.922,125.16 H 88.50794"
       id="path654" />
    <path
       d="M 87.344,125.16 H 85.4299"
       id="path656" />
    <path
       d="M 84.266,125.16 H 83.84803"
       id="path658" />
    <path
       d="M 82.684,125.16 H 80.6879"
       id="path660" />
    <path
       d="M 79.523,125.16 H 79.18706"
       id="path662" />
    <path
       d="M 78.023,125.16 H 76.0269"
       id="path664" />
    <path
       d="M 74.863,125.16 H 74.44503"
       id="path666" />
    <path
       d="M 73.281,125.16 H 71.3669"
       id="path668" />
    <path
       d="M 70.203,125.16 H 69.78894"
       id="path670" />
    <path
       d="M 68.621,125.16 H 66.7108"
       id="path672" />
    <path
       d="M 65.543,125.16 H 65.12894"
       id="path674" />
    <path
       d="M 63.965,125.16 H 61.9689"
       id="path676" />
    <path
       d="M 60.801,125.16 H 60.46897"
       id="path678" />
    <path
       d="M 59.305,125.16 H 57.3089"
       id="path680" />
    <path
       d="M 56.145,125.16 H 55.72703"
       id="path682" />
    <path
       d="M 54.562,125.16 H 52.6479"
       id="path684" />
    <path
       d="M 51.484,125.16 H 51.06603"
       id="path686" />
    <path
       d="M 49.902,125.16 H 47.9879"
       id="path688" />
    <path
       d="M 46.824,125.16 H 46.40994"
       id="path690" />
    <path
       d="m 45.246,125.16 h -2"
       id="path692" />
    <path
       d="M 42.082,125.16 H 41.74997"
       id="path694" />
    <path
       d="M 40.504,125.16 H 38.5899"
       id="path696" />
    <path
       d="M 37.426,125.16 H 37.00803"
       id="path698" />
    <path
       d="M 35.844,125.16 H 33.9299"
       id="path700" />
    <path
       d="M 32.766,125.16 H 32.34803"
       id="path702" />
    <path
       d="M 31.184,125.16 H 29.2699"
       id="path704" />
  </g>
  <g
     clip-path="url(#clip36)"
     id="g710"
     transform="translate(1.0190621,0.06522509)">
    <path
       transform="scale(1,-1)"
       d="M 28.023,-125.16 H 27.69097"
       fill="none"
       stroke="#000000"
       stroke-miterlimit="10"
       stroke-width="0.41598"
       id="path708" />
  </g>
  <g
     stroke-miterlimit="10"
     id="g718"
     transform="translate(1.0190621,0.06522509)">
    <path
       d="M 142.75,115.59 48.902,28.817"
       fill="none"
       stroke="#000000"
       stroke-dasharray="5, 5"
       stroke-width="1.581"
       id="path712" />
    <path
       d="m 149.16,121.66 -10.148,-2.9102 6.4883,-7.0742 z"
       fill-rule="evenodd"
       stroke="#000000"
       stroke-width="0.12"
       id="path714" />
    <path
       d="m 152.9,122.41 h 1 l 0.74609,0.41406 0.58203,0.58203 0.41797,0.75 0.16406,1 -0.16406,0.74609 -0.41797,0.83203 -0.58203,0.75 -0.74609,0.41406 h -1.75 l -0.83203,-0.41406 -0.58203,-0.75 -0.41406,-0.83203 -0.16797,-0.74609 0.16797,-1 0.41406,-0.75 0.58203,-0.58203 L 152.15,122.41 Z"
       fill="#ffffff"
       fill-rule="evenodd"
       stroke="#ffffff"
       stroke-width="0.12"
       id="path716" />
  </g>
  <path
     d="m 153.91906,122.47523 h 1 l 0.74609,0.41406 0.58203,0.58203 0.41797,0.75 0.16406,1 -0.16406,0.74609 -0.41797,0.83203 -0.58203,0.75 -0.74609,0.41406 h -1.75 l -0.83203,-0.41406 -0.58203,-0.75 -0.41406,-0.83203 -0.16797,-0.74609 0.16797,-1 0.41406,-0.75 0.58203,-0.58203 0.83203,-0.41406 z"
     fill="none"
     stroke-width="0.74877"
     id="path720"
     style="stroke:#000000;stroke-miterlimit:10" />
  <path
     d="m 332.27906,122.47523 0.83203,0.25 0.75,0.33203 0.58203,0.58203 0.41406,0.83203 0.16797,0.91406 -0.16797,0.83203 -0.41406,0.75 -0.58203,0.58203 -0.75,0.41406 -0.83203,0.16797 -1,-0.16797 -0.74609,-0.41406 -0.58203,-0.58203 -0.41797,-0.75 -0.16406,-0.83203 0.16406,-0.91406 0.41797,-0.83203 0.58203,-0.58203 0.74609,-0.33203 z"
     fill="#ffffff"
     fill-rule="evenodd"
     stroke="#ffffff"
     stroke-miterlimit="10"
     stroke-width="0.12"
     id="path728" />
  <path
     d="m 332.27906,122.47523 0.83203,0.25 0.75,0.33203 0.58203,0.58203 0.41406,0.83203 0.16797,0.91406 -0.16797,0.83203 -0.41406,0.75 -0.58203,0.58203 -0.75,0.41406 -0.83203,0.16797 -1,-0.16797 -0.74609,-0.41406 -0.58203,-0.58203 -0.41797,-0.75 -0.16406,-0.83203 0.16406,-0.91406 0.41797,-0.83203 0.58203,-0.58203 0.74609,-0.33203 z"
     fill="none"
     stroke-width="0.74877"
     id="path730"
     style="stroke:#000000;stroke-miterlimit:10" />
  <path
     d="m 332.27906,124.80523 h 0.25 l 0.16797,0.25 0.16406,0.33203 -0.16406,0.25 -0.16797,0.16797 -0.25,0.16406 -0.33203,-0.16406 -0.25,-0.16797 v -0.58203 l 0.25,-0.25 z"
     fill-rule="evenodd"
     stroke-width="0.12"
     id="path732"
     style="stroke:#000000;stroke-miterlimit:10" />
  <path
     d="m 332.27906,124.80523 h 0.25 l 0.16797,0.25 0.16406,0.33203 -0.16406,0.25 -0.16797,0.16797 -0.25,0.16406 -0.33203,-0.16406 -0.25,-0.16797 v -0.58203 l 0.25,-0.25 z"
     fill="none"
     stroke-width="0.74877"
     id="path734"
     style="stroke:#000000;stroke-miterlimit:10" />
  <path
     d="m 62.351062,36.753225 9.4219,-10.031"
     fill="none"
     stroke-width="2.325"
     id="path736"
     style="stroke:#000000;stroke-miterlimit:10" />
  <path
     d="m 76.636062,21.510225 -8.543,3.2031 6.0508,5.4805 z"
     fill-rule="evenodd"
     stroke-width="0.12"
     id="path738"
     style="stroke:#000000;stroke-miterlimit:10" />
  <path
     d="m 60.492062,35.870225 h 0.99609 l 0.75,0.41406 0.58203,0.58203 0.41406,0.75 v 1.7461 l -0.41406,0.83203 -0.58203,0.75 -0.75,0.41797 h -1.9961 l -0.75,-0.41797 -0.58203,-0.75 -0.41406,-0.83203 v -1.7461 l 0.41406,-0.75 0.58203,-0.58203 0.75,-0.41406 z"
     fill="#ffffff"
     fill-rule="evenodd"
     stroke="#ffffff"
     stroke-miterlimit="10"
     stroke-width="0.12"
     id="path742" />
  <path
     d="m 60.492062,35.870225 h 0.99609 l 0.75,0.41406 0.58203,0.58203 0.41406,0.75 v 1.7461 l -0.41406,0.83203 -0.58203,0.75 -0.75,0.41797 h -1.9961 l -0.75,-0.41797 -0.58203,-0.75 -0.41406,-0.83203 v -1.7461 l 0.41406,-0.75 0.58203,-0.58203 0.75,-0.41406 z"
     fill="none"
     stroke-width="1.5807"
     id="path744"
     style="stroke:#000000;stroke-miterlimit:10" />
  <path
     d="m 60.492062,38.034225 h 0.16406 l 0.25,0.16406 0.16797,0.41797 -0.16797,0.16406 -0.25,0.25 -0.16406,0.16797 -0.58203,-0.58203 0.16406,-0.41797 0.25,-0.16406 z"
     fill-rule="evenodd"
     stroke-width="0.12"
     id="path746"
     style="stroke:#000000;stroke-miterlimit:10" />
  <path
     d="m 60.492062,38.034225 h 0.16406 l 0.25,0.16406 0.16797,0.41797 -0.16797,0.16406 -0.25,0.25 -0.16406,0.16797 -0.58203,-0.58203 0.16406,-0.41797 0.25,-0.16406 z"
     fill="none"
     stroke-width="1.5807"
     id="path748"
     style="stroke:#000000;stroke-miterlimit:10" />
  <path
     d="M 106.43906,90.530225 V 120.72923"
     fill="none"
     stroke-width="0.41598"
     id="path750"
     style="stroke:#000000;stroke-miterlimit:10" />
  <path
     d="m 106.43906,85.870225 2.3281,4.8281 h -4.7422 z"
     fill-rule="evenodd"
     stroke-width="0.12"
     id="path752"
     style="stroke:#000000;stroke-miterlimit:10" />
  <path
     d="m 106.43906,125.22523 2.3281,-4.9102 h -4.7422 z"
     fill-rule="evenodd"
     stroke-width="0.12"
     id="path754"
     style="stroke:#000000;stroke-miterlimit:10" />
  <path
     d="m 106.43906,129.71523 v 30.199"
     fill="none"
     stroke-width="0.41598"
     id="path756"
     style="stroke:#000000;stroke-miterlimit:10" />
  <path
     d="m 106.43906,125.22523 2.3281,4.9062 h -4.7422 z"
     fill-rule="evenodd"
     stroke-width="0.12"
     id="path758"
     style="stroke:#000000;stroke-miterlimit:10" />
  <path
     d="m 106.43906,164.65523 2.3281,-4.9102 h -4.7422 z"
     fill-rule="evenodd"
     stroke-width="0.12"
     id="path760"
     style="stroke:#000000;stroke-miterlimit:10" />
  <path
     d="m 160.52906,120.41523 47.301,-33.336005"
     fill="none"
     stroke-dasharray="5, 5"
     stroke-width="1.581"
     id="path762"
     style="stroke:#000000;stroke-miterlimit:10" />
  <path
     d="m 212.67906,83.108225 -10.484,1.7461 5.6602,7.7383 z"
     fill-rule="evenodd"
     stroke-width="0.12"
     id="path764"
     style="stroke:#000000;stroke-miterlimit:10" />
  <path
     d="m 208.64906,125.09523 1.1211,-5.2188 0.18359,-4.8438 -0.83594,-4.3828 -1.7734,-3.9141 -2.4219,-3.4492 -3.4492,-3.0742 -4.5664,-2.890605"
     fill="none"
     stroke-width="0.46602"
     id="path766"
     style="stroke:#000000;stroke-miterlimit:10" />
  <path
     d="m 195.54906,96.807225 3.0781,4.410205 2.1641,-4.242205 z"
     fill-rule="evenodd"
     stroke-width="0.12"
     id="path768"
     style="stroke:#000000;stroke-miterlimit:10" />
  <path
     d="m 308.06906,199.36523 c 0.10938,-0.29688 0.3125,-0.82812 1.25,-0.82812 v -0.34375 c -0.60938,0.0156 -0.64062,0.0156 -1.0938,0.0156 -0.32812,0 -0.92188,0 -1.2188,-0.0156 v 0.34375 c 0.60938,0 0.78125,0.34375 0.78125,0.57812 0,0.0781 0,0.0937 -0.0781,0.26562 l -2.2344,5.8906 -2.3438,-6.2188 c -0.0625,-0.125 -0.0625,-0.15625 -0.0625,-0.17188 0,-0.34375 0.59375,-0.34375 0.89062,-0.34375 v -0.34375 c -0.28125,0.0156 -1.1875,0.0156 -1.5312,0.0156 -0.3437,0 -1.1562,0 -1.4375,-0.0156 v 0.34375 c 0.73438,0 0.92188,0 1.1094,0.46875 l 2.7969,7.375 c 0.0625,0.15625 0.0781,0.21875 0.25,0.21875 0.17187,0 0.17188,-0.0312 0.26562,-0.23438 z"
     id="path778" />
  <path
     d="m 311.62906,198.98523 c 0,-0.3125 -0.25,-0.59375 -0.57812,-0.59375 -0.3125,0 -0.57812,0.25 -0.57812,0.57812 0,0.35938 0.28125,0.57812 0.57812,0.57812 0.35938,0 0.57812,-0.29688 0.57812,-0.5625 z m -1.6406,2.2188 v 0.34375 c 0.75,0 0.85938,0.0781 0.85938,0.65625 v 3.25 c 0,0.54688 -0.125,0.54688 -0.90625,0.54688 v 0.34375 c 0.34375,-0.0312 0.90625,-0.0312 1.2656,-0.0312 0.125,0 0.8125,0 1.2188,0.0312 v -0.34375 c -0.76562,0 -0.8125,-0.0625 -0.8125,-0.53125 v -4.3906 z"
     id="path780" />
  <path
     d="m 316.71906,201.28523 c 0,-0.20312 0,-0.26562 -0.125,-0.26562 -0.0937,0 -0.3125,0.26562 -0.40625,0.375 -0.35938,-0.3125 -0.73438,-0.375 -1.125,-0.375 -1.4375,0 -1.875,0.78125 -1.875,1.4375 0,0.14062 0,0.5625 0.45312,0.96875 0.39062,0.34375 0.79688,0.42188 1.3438,0.53125 0.65625,0.125 0.8125,0.17188 1.1094,0.40625 0.21875,0.17188 0.375,0.4375 0.375,0.78125 0,0.51562 -0.29688,1.0781 -1.3594,1.0781 -0.78125,0 -1.3594,-0.45312 -1.625,-1.6406 -0.0469,-0.21875 -0.0469,-0.23438 -0.0469,-0.25 -0.0312,-0.0469 -0.0781,-0.0469 -0.10938,-0.0469 -0.14062,0 -0.14062,0.0625 -0.14062,0.28125 v 1.625 c 0,0.21875 0,0.28125 0.125,0.28125 0.0625,0 0.0625,-0.0156 0.26562,-0.26562 0.0625,-0.0937 0.0625,-0.10938 0.25,-0.29688 0.45313,0.5625 1.0938,0.5625 1.2969,0.5625 1.25,0 1.875,-0.70312 1.875,-1.6406 0,-0.64062 -0.39062,-1.0312 -0.5,-1.1406 -0.42188,-0.375 -0.75,-0.4375 -1.5469,-0.57812 -0.34375,-0.0781 -1.21879,-0.25 -1.21879,-0.96875 0,-0.35938 0.25,-0.90625 1.3281,-0.90625 1.2969,0 1.375,1.1094 1.3906,1.4688 0.0156,0.10938 0.0937,0.10938 0.14062,0.10938 0.125,0 0.125,-0.0625 0.125,-0.28125 z"
     id="path782" />
  <path
     d="m 319.42906,201.53523 h 1.6719 v -0.34375 h -1.6719 v -2.1875 h -0.26562 c -0.0156,1.1094 -0.45312,2.2656 -1.5312,2.2969 v 0.23438 h 1.0156 v 3.3281 c 0,1.3281 0.875,1.6094 1.5156,1.6094 0.75,0 1.1406,-0.75 1.1406,-1.6094 v -0.67188 h -0.25 v 0.65625 c 0,0.85938 -0.35938,1.3594 -0.8125,1.3594 -0.8125,0 -0.8125,-1.1094 -0.8125,-1.3125 z"
     id="path784" />
  <path
     d="m 326.57906,203.15523 c 0,-0.65625 0,-1.125 -0.51562,-1.5938 -0.42188,-0.375 -0.96875,-0.54688 -1.4844,-0.54688 -0.98438,0 -1.7344,0.64062 -1.7344,1.4219 0,0.34375 0.21875,0.51562 0.5,0.51562 0.28125,0 0.48438,-0.20312 0.48438,-0.5 0,-0.48438 -0.42188,-0.48438 -0.60938,-0.48438 0.28125,-0.5 0.85938,-0.71875 1.3281,-0.71875 0.54688,0 1.2656,0.45312 1.2656,1.5312 v 0.48438 c -2.4062,0.0312 -3.3125,1.0312 -3.3125,1.9531 0,0.95312 1.0938,1.25 1.8281,1.25 0.78125,0 1.3281,-0.48438 1.5469,-1.0625 0.0469,0.5625 0.42188,1 0.9375,1 0.25,0 0.9375,-0.17188 0.9375,-1.125 v -0.67188 h -0.26562 v 0.67188 c 0,0.6875 -0.28125,0.78125 -0.45312,0.78125 -0.45312,0 -0.45312,-0.64062 -0.45312,-0.8125 z m -0.76562,1.5 c 0,1.1719 -0.875,1.5625 -1.3906,1.5625 -0.59375,0 -1.0781,-0.42188 -1.0781,-1 0,-1.5781 2.0312,-1.7188 2.4688,-1.75 z"
     id="path786" />
  <path
     d="m 333.77906,201.53523 h 1.3438 v -0.34375 h -1.375 v -1.3906 c 0,-1.0781 0.54688,-1.625 1.0469,-1.625 0.0937,0 0.26562,0.0156 0.40625,0.0937 -0.0469,0.0156 -0.34375,0.125 -0.34375,0.46875 0,0.26562 0.1875,0.46875 0.46875,0.46875 0.28125,0 0.48438,-0.20312 0.48438,-0.48438 0,-0.4375 -0.4375,-0.79688 -1.0156,-0.79688 -0.82812,0 -1.7812,0.65625 -1.7812,1.875 v 1.3906 h -0.92188 v 0.34375 h 0.92188 v 3.9219 c 0,0.54688 -0.125,0.54688 -0.90625,0.54688 v 0.34375 c 0.34375,-0.0312 1,-0.0312 1.3594,-0.0312 0.3125,0 1.1719,0 1.4375,0.0312 v -0.34375 h -0.23438 c -0.875,0 -0.89062,-0.14062 -0.89062,-0.5625 z"
     id="path788" />
  <path
     d="m 337.29906,203.56523 c 0,-1.1562 0.46875,-2.25 1.3906,-2.25 0.0937,0 0.125,0 0.17188,0.0156 -0.0937,0.0469 -0.28125,0.10938 -0.28125,0.4375 0,0.34375 0.26562,0.48438 0.45312,0.48438 0.25,0 0.48438,-0.15625 0.48438,-0.48438 0,-0.35937 -0.32812,-0.6875 -0.84375,-0.6875 -1.0156,0 -1.3594,1.0938 -1.4219,1.3281 h -0.0156 v -1.3281 l -1.6094,0.125 v 0.34375 c 0.8125,0 0.92188,0.0937 0.92188,0.67188 v 3.2344 c 0,0.54688 -0.14062,0.54688 -0.92188,0.54688 v 0.34375 c 0.34375,-0.0312 1,-0.0312 1.3594,-0.0312 0.32812,0 1.1719,0 1.4375,0.0312 v -0.34375 h -0.23438 c -0.875,0 -0.89062,-0.14062 -0.89062,-0.5625 z"
     id="path790" />
  <path
     d="m 345.32906,203.78523 c 0,-1.5312 -1.1719,-2.7656 -2.5625,-2.7656 -1.4219,0 -2.5625,1.2656 -2.5625,2.7656 0,1.5312 1.1875,2.6875 2.5625,2.6875 1.4062,0 2.5625,-1.1719 2.5625,-2.6875 z m -2.5625,2.4219 c -0.4375,0 -0.96875,-0.1875 -1.3125,-0.78125 -0.32812,-0.53125 -0.34375,-1.2344 -0.34375,-1.75 0,-0.45312 0,-1.1719 0.375,-1.7188 0.32812,-0.51562 0.85938,-0.70312 1.2812,-0.70312 0.45312,0 0.96875,0.21875 1.2812,0.6875 0.375,0.54688 0.375,1.2969 0.375,1.7344 0,0.42188 0,1.1719 -0.3125,1.7344 -0.32812,0.5625 -0.89062,0.79688 -1.3438,0.79688 z"
     id="path792" />
  <path
     d="m 351.00906,203.44523 c 0,-1.1094 0,-1.4375 -0.26563,-1.8281 -0.34375,-0.46875 -0.90625,-0.53125 -1.3125,-0.53125 -1.1719,0 -1.625,0.98438 -1.7188,1.2188 v -1.2188 l -1.6406,0.125 v 0.34375 c 0.8125,0 0.92187,0.0937 0.92187,0.67188 v 3.2344 c 0,0.54688 -0.14062,0.54688 -0.92187,0.54688 v 0.34375 c 0.3125,-0.0312 0.96875,-0.0312 1.2969,-0.0312 0.34375,0 1,0 1.2969,0.0312 v -0.34375 c -0.75,0 -0.90625,0 -0.90625,-0.54688 v -2.2188 c 0,-1.25 0.82812,-1.9219 1.5781,-1.9219 0.73438,0 0.90625,0.60938 0.90625,1.3438 v 2.7969 c 0,0.54688 -0.14062,0.54688 -0.90625,0.54688 v 0.34375 c 0.29688,-0.0312 0.95313,-0.0312 1.2812,-0.0312 0.34375,0 1,0 1.3125,0.0312 v -0.34375 c -0.60937,0 -0.90625,0 -0.92187,-0.35938 z"
     id="path794" />
  <path
     d="m 353.89906,201.53523 h 1.6719 v -0.34375 h -1.6719 v -2.1875 h -0.26562 c -0.0156,1.1094 -0.45312,2.2656 -1.5312,2.2969 v 0.23438 h 1.0156 v 3.3281 c 0,1.3281 0.875,1.6094 1.5156,1.6094 0.75,0 1.1406,-0.75 1.1406,-1.6094 v -0.67188 h -0.25 v 0.65625 c 0,0.85938 -0.35938,1.3594 -0.8125,1.3594 -0.8125,0 -0.8125,-1.1094 -0.8125,-1.3125 z"
     id="path796" />
  <path
     d="m 361.03906,203.15523 c 0,-0.65625 0,-1.125 -0.51563,-1.5938 -0.42187,-0.375 -0.96875,-0.54688 -1.4844,-0.54688 -0.98438,0 -1.7344,0.64062 -1.7344,1.4219 0,0.34375 0.21875,0.51562 0.5,0.51562 0.28125,0 0.48438,-0.20312 0.48438,-0.5 0,-0.48438 -0.42188,-0.48438 -0.60938,-0.48438 0.28125,-0.5 0.85938,-0.71875 1.3281,-0.71875 0.54687,0 1.2656,0.45312 1.2656,1.5312 v 0.48438 c -2.4062,0.0312 -3.3125,1.0312 -3.3125,1.9531 0,0.95312 1.0938,1.25 1.8281,1.25 0.78125,0 1.3281,-0.48438 1.5469,-1.0625 0.0469,0.5625 0.42188,1 0.9375,1 0.25,0 0.9375,-0.17188 0.9375,-1.125 v -0.67188 h -0.26562 v 0.67188 c 0,0.6875 -0.28125,0.78125 -0.45313,0.78125 -0.45312,0 -0.45312,-0.64062 -0.45312,-0.8125 z m -0.76563,1.5 c 0,1.1719 -0.875,1.5625 -1.3906,1.5625 -0.59375,0 -1.0781,-0.42188 -1.0781,-1 0,-1.5781 2.0312,-1.7188 2.4688,-1.75 z"
     id="path798" />
  <path
     d="m 364.34906,198.04523 -1.6719,0.14062 v 0.34375 c 0.8125,0 0.90625,0.0781 0.90625,0.67188 v 6.25 c 0,0.54688 -0.125,0.54688 -0.90625,0.54688 v 0.34375 c 0.34375,-0.0312 0.92188,-0.0312 1.2812,-0.0312 0.35932,0 0.95312,0 1.2969,0.0312 v -0.34375 c -0.76562,0 -0.90625,0 -0.90625,-0.54688 z"
     id="path800" />
  <path
     d="m 72.097062,198.84523 c 0.10938,-0.29688 0.3125,-0.82812 1.25,-0.82812 v -0.34375 c -0.60938,0.0156 -0.64062,0.0156 -1.0938,0.0156 -0.32812,0 -0.92188,0 -1.2188,-0.0156 v 0.34375 c 0.60938,0 0.78125,0.34375 0.78125,0.57812 0,0.0781 0,0.0937 -0.07813,0.26562 l -2.2344,5.8906 -2.3438,-6.2188 c -0.0625,-0.125 -0.0625,-0.15625 -0.0625,-0.17188 0,-0.34375 0.59375,-0.34375 0.89062,-0.34375 v -0.34375 c -0.28125,0.0156 -1.1875,0.0156 -1.5312,0.0156 -0.3437,0 -1.1562,0 -1.4375,-0.0156 v 0.34375 c 0.73438,0 0.92188,0 1.1094,0.46875 l 2.7969,7.375 c 0.0625,0.15625 0.07813,0.21875 0.25,0.21875 0.171875,0 0.17188,-0.0312 0.26562,-0.23438 z"
     id="path802" />
  <path
     d="m 75.656062,198.47523 c 0,-0.3125 -0.25,-0.59375 -0.57812,-0.59375 -0.3125,0 -0.57812,0.25 -0.57812,0.57812 0,0.35938 0.28125,0.57812 0.57812,0.57812 0.35938,0 0.57812,-0.29688 0.57812,-0.5625 z m -1.6406,2.2188 v 0.34375 c 0.75,0 0.85938,0.0781 0.85938,0.65625 v 3.25 c 0,0.54688 -0.125,0.54688 -0.90625,0.54688 v 0.34375 c 0.34375,-0.0312 0.90625,-0.0312 1.2656,-0.0312 0.125,0 0.8125,0 1.2188,0.0312 v -0.34375 c -0.76562,0 -0.8125,-0.0625 -0.8125,-0.53125 v -4.3906 z"
     id="path804" />
  <path
     d="m 80.749062,200.76523 c 0,-0.20312 0,-0.26562 -0.125,-0.26562 -0.09375,0 -0.3125,0.26562 -0.40625,0.375 -0.35938,-0.3125 -0.73438,-0.375 -1.125,-0.375 -1.4375,0 -1.875,0.78125 -1.875,1.4375 0,0.14062 0,0.5625 0.45312,0.96875 0.39062,0.34375 0.79688,0.42188 1.3438,0.53125 0.65625,0.125 0.8125,0.17188 1.1094,0.40625 0.21875,0.17188 0.375,0.4375 0.375,0.78125 0,0.51562 -0.29688,1.0781 -1.3594,1.0781 -0.78125,0 -1.3594,-0.45312 -1.625,-1.6406 -0.04687,-0.21875 -0.04687,-0.23438 -0.04687,-0.25 -0.03125,-0.0469 -0.07813,-0.0469 -0.10938,-0.0469 -0.14062,0 -0.14062,0.0625 -0.14062,0.28125 v 1.625 c 0,0.21875 0,0.28125 0.125,0.28125 0.0625,0 0.0625,-0.0156 0.26562,-0.26562 0.0625,-0.0937 0.0625,-0.10938 0.25,-0.29688 0.45312,0.5625 1.0938,0.5625 1.2969,0.5625 1.25,0 1.875,-0.70312 1.875,-1.6406 0,-0.64062 -0.39062,-1.0312 -0.5,-1.1406 -0.42188,-0.375 -0.75,-0.4375 -1.5469,-0.57812 -0.34375,-0.0781 -1.2188,-0.25 -1.2188,-0.96875 0,-0.35938 0.25,-0.90625 1.3281,-0.90625 1.2969,0 1.375,1.1094 1.3906,1.4688 0.01563,0.10938 0.09375,0.10938 0.14062,0.10938 0.125,0 0.125,-0.0625 0.125,-0.28125 z"
     id="path806" />
  <path
     d="m 83.460062,201.01523 h 1.6719 v -0.34375 h -1.6719 v -2.1875 h -0.26562 c -0.01563,1.1094 -0.45312,2.2656 -1.5312,2.2969 v 0.23438 h 1.0156 v 3.3281 c 0,1.3281 0.875,1.6094 1.5156,1.6094 0.75,0 1.1406,-0.75 1.1406,-1.6094 v -0.67188 h -0.25 v 0.65625 c 0,0.85938 -0.35938,1.3594 -0.8125,1.3594 -0.8125,0 -0.8125,-1.1094 -0.8125,-1.3125 z"
     id="path808" />
  <path
     d="m 90.609062,202.64523 c 0,-0.65625 0,-1.125 -0.51562,-1.5938 -0.42188,-0.375 -0.96875,-0.54688 -1.4844,-0.54688 -0.98438,0 -1.7344,0.64062 -1.7344,1.4219 0,0.34375 0.21875,0.51562 0.5,0.51562 0.28125,0 0.48438,-0.20312 0.48438,-0.5 0,-0.48438 -0.42188,-0.48438 -0.60938,-0.48438 0.28125,-0.5 0.85938,-0.71875 1.3281,-0.71875 0.54688,0 1.2656,0.45312 1.2656,1.5312 v 0.48438 c -2.4062,0.0312 -3.3125,1.0312 -3.3125,1.9531 0,0.95312 1.0938,1.25 1.8281,1.25 0.78125,0 1.3281,-0.48438 1.5469,-1.0625 0.04687,0.5625 0.42188,1 0.9375,1 0.25,0 0.9375,-0.17188 0.9375,-1.125 v -0.67188 h -0.26562 v 0.67188 c 0,0.6875 -0.28125,0.78125 -0.45312,0.78125 -0.45312,0 -0.45312,-0.64062 -0.45312,-0.8125 z m -0.76562,1.5 c 0,1.1719 -0.875,1.5625 -1.3906,1.5625 -0.59375,0 -1.0781,-0.42188 -1.0781,-1 0,-1.5781 2.0312,-1.7188 2.4688,-1.75 z"
     id="path810" />
  <path
     d="m 97.812062,197.53523 -1.6719,0.14062 v 0.34375 c 0.8125,0 0.90625,0.0781 0.90625,0.67188 v 6.25 c 0,0.54688 -0.125,0.54688 -0.90625,0.54688 v 0.34375 c 0.34375,-0.0312 0.92188,-0.0312 1.2812,-0.0312 0.35932,0 0.95312,0 1.2969,0.0312 v -0.34375 c -0.76562,0 -0.90625,0 -0.90625,-0.54688 z"
     id="path812" />
  <path
     d="m 103.60906,202.64523 c 0,-0.65625 0,-1.125 -0.51562,-1.5938 -0.42188,-0.375 -0.96875,-0.54688 -1.4844,-0.54688 -0.98438,0 -1.734398,0.64062 -1.734398,1.4219 0,0.34375 0.218748,0.51562 0.499998,0.51562 0.28125,0 0.48438,-0.20312 0.48438,-0.5 0,-0.48438 -0.42188,-0.48438 -0.60938,-0.48438 0.28125,-0.5 0.85938,-0.71875 1.3281,-0.71875 0.54688,0 1.2656,0.45312 1.2656,1.5312 v 0.48438 c -2.4062,0.0312 -3.312498,1.0312 -3.312498,1.9531 0,0.95312 1.093798,1.25 1.828098,1.25 0.78125,0 1.3281,-0.48438 1.5469,-1.0625 0.0469,0.5625 0.42188,1 0.9375,1 0.25,0 0.9375,-0.17188 0.9375,-1.125 v -0.67188 h -0.26562 v 0.67188 c 0,0.6875 -0.28125,0.78125 -0.45312,0.78125 -0.45312,0 -0.45312,-0.64062 -0.45312,-0.8125 z m -0.76562,1.5 c 0,1.1719 -0.875,1.5625 -1.3906,1.5625 -0.59375,0 -1.0781,-0.42188 -1.0781,-1 0,-1.5781 2.0312,-1.7188 2.4688,-1.75 z"
     id="path814" />
  <path
     d="m 106.86906,201.01523 h 1.6719 v -0.34375 h -1.6719 v -2.1875 h -0.26562 c -0.0156,1.1094 -0.45313,2.2656 -1.5312,2.2969 v 0.23438 h 1.0156 v 3.3281 c 0,1.3281 0.875,1.6094 1.5156,1.6094 0.75,0 1.1406,-0.75 1.1406,-1.6094 v -0.67188 h -0.25 v 0.65625 c 0,0.85938 -0.35937,1.3594 -0.8125,1.3594 -0.8125,0 -0.8125,-1.1094 -0.8125,-1.3125 z"
     id="path816" />
  <path
     d="m 113.97906,203.06523 c 0.26562,0 0.28125,0 0.28125,-0.23438 0,-1.2031 -0.64062,-2.3281 -2.0938,-2.3281 -1.3594,0 -2.4062,1.2344 -2.4062,2.7031 0,1.5781 1.2188,2.75 2.5469,2.75 1.4219,0 1.9531,-1.2969 1.9531,-1.5469 0,-0.0781 -0.0469,-0.125 -0.125,-0.125 -0.0937,0 -0.125,0.0625 -0.14062,0.125 -0.3125,1 -1.1094,1.2812 -1.625,1.2812 -0.5,0 -1.7031,-0.34375 -1.7031,-2.4062 v -0.21875 z m -3.2969,-0.23438 c 0.0937,-1.875 1.1406,-2.0938 1.4844,-2.0938 1.2812,0 1.3438,1.6875 1.3594,2.0938 z"
     id="path818" />
  <path
     d="m 116.60906,203.04523 c 0,-1.1562 0.46875,-2.25 1.3906,-2.25 0.0937,0 0.125,0 0.17188,0.0156 -0.0937,0.0469 -0.28125,0.10938 -0.28125,0.4375 0,0.34375 0.26562,0.48438 0.45312,0.48438 0.25,0 0.48438,-0.15625 0.48438,-0.48438 0,-0.35938 -0.32812,-0.6875 -0.84375,-0.6875 -1.0156,0 -1.3594,1.0938 -1.4219,1.3281 h -0.0156 v -1.3281 l -1.6094,0.125 v 0.34375 c 0.8125,0 0.92188,0.0937 0.92188,0.67188 v 3.2344 c 0,0.54688 -0.14062,0.54688 -0.92188,0.54688 v 0.34375 c 0.34375,-0.0312 1,-0.0312 1.3594,-0.0312 0.32812,0 1.1719,0 1.4375,0.0312 v -0.34375 h -0.23438 c -0.875,0 -0.89062,-0.14062 -0.89062,-0.5625 z"
     id="path820" />
  <path
     d="m 123.76906,202.64523 c 0,-0.65625 0,-1.125 -0.51562,-1.5938 -0.42188,-0.375 -0.96875,-0.54688 -1.4844,-0.54688 -0.98438,0 -1.7344,0.64062 -1.7344,1.4219 0,0.34375 0.21875,0.51562 0.5,0.51562 0.28125,0 0.48438,-0.20312 0.48438,-0.5 0,-0.48438 -0.42188,-0.48438 -0.60938,-0.48438 0.28125,-0.5 0.85938,-0.71875 1.3281,-0.71875 0.54688,0 1.2656,0.45312 1.2656,1.5312 v 0.48438 c -2.4062,0.0312 -3.3125,1.0312 -3.3125,1.9531 0,0.95312 1.0938,1.25 1.8281,1.25 0.78125,0 1.3281,-0.48438 1.5469,-1.0625 0.0469,0.5625 0.42188,1 0.9375,1 0.25,0 0.9375,-0.17188 0.9375,-1.125 v -0.67188 h -0.26562 v 0.67188 c 0,0.6875 -0.28125,0.78125 -0.45312,0.78125 -0.45312,0 -0.45312,-0.64062 -0.45312,-0.8125 z m -0.76562,1.5 c 0,1.1719 -0.875,1.5625 -1.3906,1.5625 -0.59375,0 -1.0781,-0.42188 -1.0781,-1 0,-1.5781 2.0312,-1.7188 2.4688,-1.75 z"
     id="path822" />
  <path
     d="m 127.07906,197.53523 -1.6719,0.14062 v 0.34375 c 0.8125,0 0.90625,0.0781 0.90625,0.67188 v 6.25 c 0,0.54688 -0.125,0.54688 -0.90625,0.54688 v 0.34375 c 0.34375,-0.0312 0.92188,-0.0312 1.2812,-0.0312 0.35932,0 0.95312,0 1.2969,0.0312 v -0.34375 c -0.76562,0 -0.90625,0 -0.90625,-0.54688 z"
     id="path824" />
  <path
     d="m 111.06906,108.83523 c -0.0625,0.20312 -0.0625,0.23438 -0.21875,0.45312 -0.26563,0.32812 -0.79688,0.84375 -1.3594,0.84375 -0.48437,0 -0.76562,-0.4375 -0.76562,-1.1406 0,-0.65625 0.375,-2 0.60937,-2.5 0.40625,-0.84375 0.96875,-1.2656 1.4219,-1.2656 0.79687,0 0.95312,0.98438 0.95312,1.0781 0,0.0156 -0.0312,0.15625 -0.0469,0.1875 z m 0.76562,-3.0625 c -0.125,-0.3125 -0.45312,-0.78125 -1.0781,-0.78125 -1.3438,0 -2.7969,1.7344 -2.7969,3.5156 0,1.1719 0.6875,1.875 1.5,1.875 0.65625,0 1.2188,-0.51562 1.5469,-0.90625 0.125,0.70312 0.6875,0.90625 1.0469,0.90625 0.35938,0 0.64063,-0.21875 0.85938,-0.65625 0.1875,-0.40625 0.35937,-1.125 0.35937,-1.1719 0,-0.0625 -0.0469,-0.10938 -0.125,-0.10938 -0.10937,0 -0.10937,0.0625 -0.15625,0.23438 -0.1875,0.70312 -0.40625,1.4531 -0.90625,1.4531 -0.34375,0 -0.35937,-0.3125 -0.35937,-0.54688 0,-0.26562 0.0312,-0.40625 0.14062,-0.875 0.0781,-0.29688 0.14063,-0.5625 0.23438,-0.90625 0.4375,-1.7969 0.54687,-2.2188 0.54687,-2.2969 0,-0.15625 -0.125,-0.29688 -0.3125,-0.29688 -0.375,0 -0.46875,0.42188 -0.5,0.5625 z"
     id="path826" />
  <path
     d="m 118.74906,101.73523 c 0,-0.0156 0.0781,-0.20312 0.0781,-0.21875 0,-0.14062 -0.125,-0.23438 -0.21875,-0.23438 -0.0625,0 -0.17188,0 -0.26562,0.26562 l -4,11.25 c 0,0.0156 -0.0781,0.1875 -0.0781,0.21875 0,0.14062 0.125,0.21875 0.21875,0.21875 0.0781,0 0.1875,-0.0156 0.26562,-0.26562 z"
     id="path828" />
  <path
     d="m 124.74906,108.23523 h -0.26562 c -0.0469,0.20312 -0.14063,0.875 -0.25,1.0625 -0.0937,0.10938 -0.76563,0.10938 -1.125,0.10938 h -2.2188 c 0.32812,-0.28125 1.0625,-1.0469 1.3594,-1.3281 1.8281,-1.6719 2.5,-2.2969 2.5,-3.4844 0,-1.375 -1.0938,-2.2969 -2.4844,-2.2969 -1.375,0 -2.2031,1.1875 -2.2031,2.2188 0,0.60938 0.53125,0.60938 0.5625,0.60938 0.26563,0 0.5625,-0.1875 0.5625,-0.5625 0,-0.34375 -0.21875,-0.5625 -0.5625,-0.5625 -0.0937,0 -0.125,0 -0.15625,0.0156 0.21875,-0.8125 0.875,-1.375 1.6406,-1.375 1.0156,0 1.6406,0.85938 1.6406,1.9531 0,1.0156 -0.57812,1.9062 -1.2656,2.6719 l -2.4219,2.7031 v 0.28125 h 4.375 z"
     id="path830" />
  <path
     d="m 85.476062,20.901225 c 0,-0.04688 0.04687,-0.125 0.04687,-0.17188 0,-0.0625 -0.04687,-0.125 -0.125,-0.125 -0.04687,0 -0.07813,0.01563 -0.10938,0.04688 -0.01563,0.01562 -0.01563,0.04687 -0.125,0.28125 -0.70312,1.6719 -1.2188,2.3906 -3.1406,2.3906 h -1.7344 c -0.17188,0 -0.20312,0 -0.26562,-0.01562 -0.14062,-0.01563 -0.14062,-0.03125 -0.14062,-0.125 0,-0.09375 0.01563,-0.15625 0.04687,-0.26563 l 0.8125,-3.2969 h 1.1875 c 0.9375,0 1,0.20312 1,0.5625 0,0.10937 0,0.21875 -0.07813,0.57812 -0.01563,0.04688 -0.03125,0.09375 -0.03125,0.14063 0,0.07812 0.0625,0.10937 0.125,0.10937 0.10938,0 0.125,-0.07812 0.17188,-0.25 l 0.6875,-2.7656 c 0,-0.0625 -0.04687,-0.125 -0.125,-0.125 -0.10938,0 -0.125,0.04687 -0.17188,0.21875 -0.23438,0.92187 -0.46875,1.1719 -1.5312,1.1719 h -1.1406 l 0.73438,-2.9375 c 0.10938,-0.40625 0.14062,-0.45312 0.625,-0.45312 h 1.7031 c 1.4844,0 1.7812,0.39062 1.7812,1.3125 0,0 0,0.34375 -0.04687,0.73437 -0.01563,0.04688 -0.03125,0.125 -0.03125,0.14063 0,0.09375 0.0625,0.14062 0.14062,0.14062 0.07812,0 0.125,-0.04687 0.14062,-0.26562 l 0.26562,-2.0938 c 0,-0.03125 0.01563,-0.15625 0.01563,-0.1875 0,-0.125 -0.10938,-0.125 -0.32812,-0.125 h -5.8281 c -0.21875,0 -0.34375,0 -0.34375,0.21875 0,0.125 0.07813,0.125 0.28125,0.125 0.75,0 0.75,0.09375 0.75,0.21875 0,0.0625 -0.01563,0.10937 -0.04687,0.23437 l -1.625,6.4531 c -0.10938,0.42187 -0.125,0.54687 -0.96875,0.54687 -0.21875,0 -0.34375,0 -0.34375,0.21875 0,0.125 0.07813,0.125 0.3125,0.125 h 6 c 0.26562,0 0.28125,-0.01562 0.35938,-0.20312 z"
     id="path832" />
  <path
     d="m 88.203062,20.491225 c 0,-0.17188 -0.125,-0.3125 -0.3125,-0.3125 -0.20312,0 -0.4375,0.20312 -0.4375,0.4375 0,0.17188 0.125,0.29688 0.3125,0.29688 0.20312,0 0.4375,-0.1875 0.4375,-0.42188 z m -1.1562,2.9219 -0.4375,1.0938 c -0.04687,0.125 -0.07813,0.21875 -0.07813,0.35938 0,0.39062 0.29688,0.67188 0.71875,0.67188 0.78125,0 1.1094,-1.1094 1.1094,-1.2188 0,-0.07813 -0.0625,-0.10938 -0.125,-0.10938 -0.09375,0 -0.10938,0.0625 -0.14062,0.14062 -0.17188,0.64062 -0.5,0.96875 -0.82812,0.96875 -0.09375,0 -0.1875,-0.04687 -0.1875,-0.25 0,-0.203125 0.0625,-0.34375 0.15625,-0.59375 0.07813,-0.20312 0.15625,-0.42188 0.25,-0.64062 l 0.25,-0.64062 c 0.0625,-0.1875 0.17188,-0.4375 0.17188,-0.57812 0,-0.39062 -0.32812,-0.67188 -0.73438,-0.67188 -0.76562,0 -1.1094,1.1094 -1.1094,1.2188 0,0.07813 0.0625,0.10938 0.125,0.10938 0.10938,0 0.10938,-0.04687 0.14062,-0.125 0.21875,-0.76562 0.57812,-0.98438 0.82812,-0.98438 0.10938,0 0.1875,0.04687 0.1875,0.26562 0,0.07813 -0.01563,0.1875 -0.09375,0.4375 z"
     id="path834" />
  <path
     d="m 55.527062,45.659225 c 0.10938,-0.40625 0.14063,-0.51562 0.98438,-0.51562 0.21875,0 0.32812,0 0.32812,-0.21875 0,-0.125 -0.10937,-0.125 -0.17187,-0.125 -0.21875,0 -0.46875,0.01563 -0.6875,0.01563 h -1.4219 c -0.21875,0 -0.46875,-0.01563 -0.70312,-0.01563 -0.07813,0 -0.21875,0 -0.21875,0.21875 0,0.125 0.07812,0.125 0.29687,0.125 0.71875,0 0.71875,0.09375 0.71875,0.21875 0,0.03125 0,0.09375 -0.04687,0.28125 l -0.71875,2.8906 h -3.6094 l 0.71875,-2.875 c 0.09375,-0.40625 0.125,-0.51562 0.96875,-0.51562 0.21875,0 0.34375,0 0.34375,-0.21875 0,-0.125 -0.10937,-0.125 -0.1875,-0.125 -0.21875,0 -0.46875,0.01563 -0.6875,0.01563 h -1.4062 c -0.23437,0 -0.48437,-0.01563 -0.71875,-0.01563 -0.07812,0 -0.21875,0 -0.21875,0.21875 0,0.125 0.07813,0.125 0.3125,0.125 0.71875,0 0.71875,0.09375 0.71875,0.21875 0,0.03125 0,0.09375 -0.04687,0.28125 l -1.625,6.4219 c -0.10938,0.42188 -0.125,0.54688 -0.95313,0.54688 -0.26562,0 -0.35937,0 -0.35937,0.21875 0,0.125 0.14062,0.125 0.17187,0.125 0.21875,0 0.46875,-0.03125 0.6875,-0.03125 h 1.4219 c 0.21875,0 0.46875,0.03125 0.70312,0.03125 0.09375,0 0.21875,0 0.21875,-0.23438 0,-0.10938 -0.10937,-0.10938 -0.28125,-0.10938 -0.73437,0 -0.73437,-0.09375 -0.73437,-0.21875 0,-0.01563 0,-0.09375 0.03125,-0.1875 l 0.8125,-3.3281 h 3.625 c -0.20313,0.79688 -0.8125,3.2969 -0.82813,3.3594 -0.14062,0.35938 -0.32812,0.35938 -1.0312,0.375 -0.14062,0 -0.25,0 -0.25,0.21875 0,0.125 0.125,0.125 0.17188,0.125 0.20312,0 0.45312,-0.03125 0.6875,-0.03125 h 1.4062 c 0.23437,0 0.48437,0.03125 0.70312,0.03125 0.09375,0 0.23438,0 0.23438,-0.23438 0,-0.10938 -0.10938,-0.10938 -0.28125,-0.10938 -0.73438,0 -0.73438,-0.09375 -0.73438,-0.21875 0,-0.01563 0,-0.09375 0.01563,-0.1875 z"
     id="path836" />
  <path
     d="m 58.664062,49.780225 c 0,-0.17188 -0.125,-0.3125 -0.3125,-0.3125 -0.20312,0 -0.4375,0.20312 -0.4375,0.4375 0,0.17188 0.125,0.29688 0.3125,0.29688 0.20312,0 0.4375,-0.1875 0.4375,-0.42188 z m -1.1562,2.9219 -0.4375,1.0938 c -0.04687,0.125 -0.07813,0.21875 -0.07813,0.35938 0,0.39062 0.29688,0.67188 0.71875,0.67188 0.78125,0 1.1094,-1.1094 1.1094,-1.2188 0,-0.07813 -0.0625,-0.10938 -0.125,-0.10938 -0.09375,0 -0.10938,0.0625 -0.14062,0.14062 -0.17188,0.64062 -0.5,0.96875 -0.82812,0.96875 -0.09375,0 -0.1875,-0.04687 -0.1875,-0.25 0,-0.203125 0.0625,-0.34375 0.15625,-0.59375 0.07813,-0.20312 0.15625,-0.42188 0.25,-0.64062 l 0.25,-0.64062 c 0.0625,-0.1875 0.17188,-0.4375 0.17188,-0.57812 0,-0.39062 -0.32812,-0.67188 -0.73438,-0.67188 -0.76562,0 -1.1094,1.1094 -1.1094,1.2188 0,0.07813 0.0625,0.10938 0.125,0.10938 0.10938,0 0.10938,-0.04687 0.14062,-0.125 0.21875,-0.76562 0.57812,-0.98438 0.82812,-0.98438 0.10938,0 0.1875,0.04687 0.1875,0.26562 0,0.07813 -0.01563,0.1875 -0.09375,0.4375 z"
     id="path838" />
  <path
     d="m 406.95186,137.05396 c -0.3125,0.45312 -0.78125,0.85938 -1.375,0.85938 -0.14062,0 -0.71875,-0.0312 -0.89062,-0.57812 0.0312,0.0156 0.0937,0.0156 0.10938,0.0156 0.35938,0 0.60938,-0.3125 0.60938,-0.59375 0,-0.26562 -0.23438,-0.35938 -0.40625,-0.35938 -0.20312,0 -0.60938,0.14062 -0.60938,0.71875 0,0.60938 0.51562,1.0312 1.1875,1.0312 1.2031,0 2.4062,-1.0938 2.7344,-2.42189 l 1.1719,-4.6719 c 0.0156,-0.0469 0.0469,-0.125 0.0469,-0.20312 0,-0.17188 -0.15625,-0.29688 -0.32812,-0.29688 -0.10938,0 -0.35938,0.0469 -0.45312,0.40625 l -0.89062,3.5156 c -0.0469,0.21875 -0.0469,0.25 -0.15625,0.375 -0.23438,0.32812 -0.625,0.73438 -1.2031,0.73438 -0.67188,0 -0.73438,-0.65625 -0.73438,-0.96875 0,-0.6875 0.32812,-1.6094 0.65625,-2.4688 0.125,-0.34375 0.20312,-0.51562 0.20312,-0.75 0,-0.5 -0.35938,-0.95312 -0.95312,-0.95312 -1.0938,0 -1.5312,1.7344 -1.5312,1.8281 0,0.0469 0.0469,0.10938 0.125,0.10938 0.10938,0 0.125,-0.0469 0.17188,-0.21875 0.28125,-1 0.73438,-1.4844 1.2031,-1.4844 0.10938,0 0.3125,0 0.3125,0.39062 0,0.3125 -0.125,0.65625 -0.3125,1.1094 -0.57812,1.5781 -0.57812,1.9688 -0.57812,2.25 0,1.1406 0.8125,1.4062 1.4062,1.4062 0.34375,0 0.78125,-0.10938 1.1875,-0.5625 l 0.0156,0.0156 c -0.17188,0.70312 -0.29688,1.1719 -0.71875,1.7656 z"
     id="path840" />
  <path
     d="m 336.88227,132.73147 c -0.39062,0.0625 -0.53125,0.35938 -0.53125,0.57813 0,0.29687 0.21875,0.39062 0.39063,0.39062 0.35937,0 0.60937,-0.3125 0.60937,-0.64062 0,-0.5 -0.57812,-0.71875 -1.0781,-0.71875 -0.71875,0 -1.125,0.71875 -1.2344,0.9375 -0.28125,-0.89063 -1.0156,-0.9375 -1.2344,-0.9375 -1.2188,0 -1.8594,1.5625 -1.8594,1.8281 0,0.0469 0.0469,0.10938 0.125,0.10938 0.0937,0 0.125,-0.0781 0.14063,-0.125 0.40625,-1.3281 1.2188,-1.5781 1.5625,-1.5781 0.53125,0 0.64062,0.5 0.64062,0.78125 0,0.26563 -0.0781,0.54688 -0.21875,1.125 l -0.40625,1.625 c -0.17187,0.71875 -0.51562,1.375 -1.1562,1.375 -0.0625,0 -0.35937,0 -0.60937,-0.15625 0.4375,-0.0781 0.53125,-0.4375 0.53125,-0.57812 0,-0.23438 -0.1875,-0.39063 -0.40625,-0.39063 -0.29688,0 -0.60938,0.26563 -0.60938,0.64063 0,0.5 0.5625,0.73437 1.0781,0.73437 0.57812,0 0.98437,-0.45312 1.2344,-0.95312 0.1875,0.70312 0.79688,0.95312 1.2344,0.95312 1.2188,0 1.8594,-1.5781 1.8594,-1.8281 0,-0.0625 -0.0469,-0.10938 -0.10937,-0.10938 -0.10938,0 -0.125,0.0625 -0.15625,0.15625 -0.32813,1.0469 -1.0156,1.5312 -1.5625,1.5312 -0.42188,0 -0.64063,-0.3125 -0.64063,-0.79687 0,-0.26563 0.0469,-0.45313 0.23438,-1.2344 l 0.42187,-1.6406 c 0.17188,-0.70313 0.57813,-1.2344 1.1406,-1.2344 0.0156,0 0.35937,0 0.60937,0.15625 z"
     id="path842" />
  <path
     d="m 329.51576,45.694758 c 0.51562,-0.57812 0.9375,-0.95312 1.5312,-1.5 0.71875,-0.60938 1.0312,-0.90625 1.2031,-1.0938 0.82812,-0.82812 1.25,-1.5156 1.25,-1.6094 0,-0.0938 -0.0937,-0.0937 -0.125,-0.0937 -0.0781,0 -0.10938,0.0469 -0.15625,0.125 -0.3125,0.51562 -0.59375,0.76562 -0.90625,0.76562 -0.25,0 -0.375,-0.10938 -0.60938,-0.39062 -0.25,-0.29688 -0.45312,-0.5 -0.79688,-0.5 -0.875,0 -1.4062,1.0781 -1.4062,1.3281 0,0.0469 0.0156,0.10938 0.125,0.10938 0.0937,0 0.10938,-0.0469 0.14062,-0.125 0.20312,-0.48438 0.78125,-0.5625 1,-0.5625 0.26562,0 0.5,0.0781 0.75,0.1875 0.45312,0.1875 0.64062,0.1875 0.76562,0.1875 h 0.1875 c -0.39062,0.45312 -1.0312,1.0312 -1.5781,1.5156 l -1.2031,1.125 c -0.73438,0.73438 -1.1719,1.4375 -1.1719,1.5312 0,0.0625 0.0625,0.0937 0.125,0.0937 0.0781,0 0.0937,-0.0156 0.17188,-0.15625 0.1875,-0.29688 0.57812,-0.75 1.0156,-0.75 0.25,0 0.375,0.0937 0.60938,0.39062 0.23438,0.26562 0.4375,0.51562 0.8125,0.51562 1.1719,0 1.8438,-1.5312 1.8438,-1.7969 0,-0.0469 -0.0156,-0.125 -0.14062,-0.125 -0.0937,0 -0.0937,0.0469 -0.14062,0.17188 -0.26562,0.70312 -0.96875,0.98438 -1.4375,0.98438 -0.25,0 -0.48438,-0.0781 -0.73438,-0.1875 -0.48438,-0.1875 -0.60938,-0.1875 -0.76562,-0.1875 -0.125,0 -0.25,0 -0.35938,0.0469 z"
     id="path844" />
  <path
     d="m 111.58906,146.60523 c -0.0625,0.20312 -0.0625,0.23438 -0.21875,0.45312 -0.26562,0.32812 -0.79687,0.84375 -1.3594,0.84375 -0.48438,0 -0.76563,-0.4375 -0.76563,-1.1406 0,-0.65625 0.375,-2 0.60938,-2.5 0.40625,-0.84375 0.96875,-1.2656 1.4219,-1.2656 0.79688,0 0.95313,0.98438 0.95313,1.0781 0,0.0156 -0.0312,0.15625 -0.0469,0.1875 z m 0.76563,-3.0625 c -0.125,-0.3125 -0.45313,-0.78125 -1.0781,-0.78125 -1.3438,0 -2.7969,1.7344 -2.7969,3.5156 0,1.1719 0.6875,1.875 1.5,1.875 0.65625,0 1.2188,-0.51562 1.5469,-0.90625 0.125,0.70312 0.6875,0.90625 1.0469,0.90625 0.35937,0 0.64062,-0.21875 0.85937,-0.65625 0.1875,-0.40625 0.35938,-1.125 0.35938,-1.1719 0,-0.0625 -0.0469,-0.10938 -0.125,-0.10938 -0.10938,0 -0.10938,0.0625 -0.15625,0.23438 -0.1875,0.70312 -0.40625,1.4531 -0.90625,1.4531 -0.34375,0 -0.35938,-0.3125 -0.35938,-0.54688 0,-0.26562 0.0312,-0.40625 0.14063,-0.875 0.0781,-0.29688 0.14062,-0.5625 0.23437,-0.90625 0.4375,-1.7969 0.54688,-2.2188 0.54688,-2.2969 0,-0.15625 -0.125,-0.29688 -0.3125,-0.29688 -0.375,0 -0.46875,0.42188 -0.5,0.5625 z"
     id="path848" />
  <path
     d="m 119.26906,139.50523 c 0,-0.0156 0.0781,-0.20312 0.0781,-0.21875 0,-0.14062 -0.125,-0.23438 -0.21875,-0.23438 -0.0625,0 -0.17188,0 -0.26562,0.26562 l -4,11.25 c 0,0.0156 -0.0781,0.1875 -0.0781,0.21875 0,0.14062 0.125,0.21875 0.21875,0.21875 0.0781,0 0.1875,-0.0156 0.26562,-0.26562 z"
     id="path850" />
  <path
     d="m 125.25906,146.00523 h -0.26562 c -0.0469,0.20312 -0.14062,0.875 -0.25,1.0625 -0.0937,0.10938 -0.76562,0.10938 -1.125,0.10938 h -2.2188 c 0.32812,-0.28125 1.0625,-1.0469 1.3594,-1.3281 1.8281,-1.6719 2.5,-2.2969 2.5,-3.4844 0,-1.375 -1.0938,-2.2969 -2.4844,-2.2969 -1.375,0 -2.2031,1.1875 -2.2031,2.2188 0,0.60938 0.53125,0.60938 0.5625,0.60938 0.26562,0 0.5625,-0.1875 0.5625,-0.5625 0,-0.34375 -0.21875,-0.5625 -0.5625,-0.5625 -0.0937,0 -0.125,0 -0.15625,0.0156 0.21875,-0.8125 0.875,-1.375 1.6406,-1.375 1.0156,0 1.6406,0.85938 1.6406,1.9531 0,1.0156 -0.57812,1.9062 -1.2656,2.6719 l -2.4219,2.7031 v 0.28125 h 4.375 z"
     id="path852" />
  <path
     d="m 153.96906,137.88523 c -0.3125,0.45312 -0.78125,0.85938 -1.375,0.85938 -0.14062,0 -0.71875,-0.0312 -0.89062,-0.57812 0.0312,0.0156 0.0937,0.0156 0.10937,0.0156 0.35938,0 0.60938,-0.3125 0.60938,-0.59375 0,-0.26562 -0.23438,-0.35938 -0.40625,-0.35938 -0.20313,0 -0.60938,0.14062 -0.60938,0.71875 0,0.60938 0.51563,1.0312 1.1875,1.0312 1.2031,0 2.4062,-1.0938 2.7344,-2.4219 l 1.1719,-4.6719 c 0.0156,-0.0469 0.0469,-0.125 0.0469,-0.20312 0,-0.17188 -0.15625,-0.29688 -0.32813,-0.29688 -0.10937,0 -0.35937,0.0469 -0.45312,0.40625 l -0.89063,3.5156 c -0.0469,0.21875 -0.0469,0.25 -0.15625,0.375 -0.23437,0.32813 -0.625,0.73438 -1.2031,0.73438 -0.67188,0 -0.73438,-0.65625 -0.73438,-0.96875 0,-0.6875 0.32813,-1.6094 0.65625,-2.4688 0.125,-0.34375 0.20313,-0.51562 0.20313,-0.75 0,-0.5 -0.35938,-0.95312 -0.95313,-0.95312 -1.0938,0 -1.5312,1.7344 -1.5312,1.8281 0,0.0469 0.0469,0.10938 0.125,0.10938 0.10938,0 0.125,-0.0469 0.17188,-0.21875 0.28125,-1 0.73437,-1.4844 1.2031,-1.4844 0.10938,0 0.3125,0 0.3125,0.39062 0,0.3125 -0.125,0.65625 -0.3125,1.1094 -0.57812,1.5781 -0.57812,1.9688 -0.57812,2.25 0,1.1406 0.8125,1.40621 1.4062,1.40621 0.34375,0 0.78125,-0.10938 1.1875,-0.5625 l 0.0156,0.0156 c -0.17187,0.70312 -0.29687,1.1719 -0.71875,1.7656 z"
     id="path854" />
  <path
     d="m 238.38654,123.98829 c -0.39062,0.0625 -0.53125,0.35938 -0.53125,0.57812 0,0.29688 0.21875,0.39062 0.39062,0.39062 0.35938,0 0.60938,-0.3125 0.60938,-0.64062 0,-0.5 -0.57812,-0.71875 -1.0781,-0.71875 -0.71875,0 -1.125,0.71875 -1.2344,0.9375 -0.28125,-0.89062 -1.0156,-0.9375 -1.2344,-0.9375 -1.2188,0 -1.8594,1.5625 -1.8594,1.8281 0,0.0469 0.0469,0.10938 0.125,0.10938 0.0937,0 0.125,-0.0781 0.14062,-0.125 0.40625,-1.3281 1.2188,-1.5781 1.5625,-1.5781 0.53125,0 0.64062,0.5 0.64062,0.78125 0,0.26562 -0.0781,0.54688 -0.21875,1.125 l -0.40625,1.625 c -0.17188,0.71875 -0.51562,1.375 -1.1562,1.375 -0.0625,0 -0.35938,0 -0.60938,-0.15625 0.4375,-0.0781 0.53125,-0.4375 0.53125,-0.57812 0,-0.23438 -0.1875,-0.39062 -0.40625,-0.39062 -0.29688,0 -0.60938,0.26562 -0.60938,0.64062 0,0.5 0.5625,0.73438 1.0781,0.73438 0.57812,0 0.98438,-0.45312 1.2344,-0.95312 0.1875,0.70312 0.79688,0.95312 1.2344,0.95312 1.2188,0 1.8594,-1.5781 1.8594,-1.8281 0,-0.0625 -0.0469,-0.10938 -0.10938,-0.10938 -0.10938,0 -0.125,0.0625 -0.15625,0.15625 -0.32812,1.0469 -1.0156,1.5312 -1.5625,1.5312 -0.42188,0 -0.64062,-0.3125 -0.64062,-0.79688 0,-0.26562 0.0469,-0.45312 0.23438,-1.2344 l 0.42188,-1.6406 c 0.17188,-0.70312 0.57812,-1.2344 1.1406,-1.2344 0.0156,0 0.35938,0 0.60938,0.15625 z"
     id="path856" />
  <path
     d="m 163.16906,215.90523 h 2.0156 c 1.6562,0 3.2969,-1.2188 3.2969,-2.5938 0,-0.92188 -0.78125,-1.7656 -2.2969,-1.7656 h -3.6875 c -0.23438,0 -0.34375,0 -0.34375,0.21875 0,0.125 0.10938,0.125 0.29688,0.125 0.71875,0 0.71875,0.0937 0.71875,0.21875 0,0.0312 0,0.0937 -0.0469,0.28125 l -1.6094,6.4219 c -0.10937,0.42188 -0.125,0.54688 -0.96875,0.54688 -0.21875,0 -0.34375,0 -0.34375,0.21875 0,0.125 0.10938,0.125 0.17188,0.125 0.23438,0 0.46875,-0.0312 0.70312,-0.0312 h 1.3906 c 0.23438,0 0.48438,0.0312 0.70313,0.0312 0.10937,0 0.23437,0 0.23437,-0.23438 0,-0.10938 -0.10937,-0.10938 -0.28125,-0.10938 -0.71875,0 -0.73437,-0.0937 -0.73437,-0.20312 0,-0.0625 0.0156,-0.14062 0.0156,-0.20312 z m 0.875,-3.5469 c 0.0937,-0.45312 0.14062,-0.46875 0.60938,-0.46875 h 1.1875 c 0.89062,0 1.6406,0.28125 1.6406,1.1719 0,0.3125 -0.15625,1.3281 -0.70312,1.8906 -0.20312,0.20312 -0.78125,0.65625 -1.875,0.65625 h -1.6875 z"
     id="path858" />
  <path
     d="m 177.11906,216.94523 c 0,-0.0469 0.0469,-0.125 0.0469,-0.17188 0,-0.0625 -0.0469,-0.125 -0.125,-0.125 -0.0469,0 -0.0781,0.0156 -0.10938,0.0469 -0.0156,0.0156 -0.0156,0.0469 -0.125,0.28125 -0.70312,1.6719 -1.2188,2.39061 -3.1406,2.39061 h -1.7344 c -0.17187,0 -0.20312,0 -0.26562,-0.0156 -0.14063,-0.0156 -0.14063,-0.0312 -0.14063,-0.125 0,-0.0937 0.0156,-0.15625 0.0469,-0.26562 l 0.8125,-3.2969 h 1.1875 c 0.9375,0 1,0.20312 1,0.5625 0,0.10938 0,0.21875 -0.0781,0.57812 -0.0156,0.0469 -0.0312,0.0937 -0.0312,0.14062 0,0.0781 0.0625,0.10938 0.125,0.10938 0.10938,0 0.125,-0.0781 0.17188,-0.25 l 0.6875,-2.7656 c 0,-0.0625 -0.0469,-0.125 -0.125,-0.125 -0.10938,0 -0.125,0.0469 -0.17188,0.21875 -0.23437,0.92188 -0.46875,1.1719 -1.5312,1.1719 h -1.1406 l 0.73437,-2.9375 c 0.10938,-0.40625 0.14063,-0.45312 0.625,-0.45312 h 1.7031 c 1.4844,0 1.7812,0.39062 1.7812,1.3125 0,0 0,0.34375 -0.0469,0.73438 -0.0156,0.0469 -0.0312,0.125 -0.0312,0.14062 0,0.0937 0.0625,0.14062 0.14063,0.14062 0.0781,0 0.125,-0.0469 0.14062,-0.26562 l 0.26563,-2.0938 c 0,-0.0312 0.0156,-0.15625 0.0156,-0.1875 0,-0.125 -0.10937,-0.125 -0.32812,-0.125 h -5.8281 c -0.21875,0 -0.34375,0 -0.34375,0.21875 0,0.125 0.0781,0.125 0.28125,0.125 0.75,0 0.75,0.0937 0.75,0.21875 0,0.0625 -0.0156,0.10938 -0.0469,0.23438 l -1.625,6.4531 c -0.10938,0.42188 -0.125,0.54688 -0.96875,0.54688 -0.21875,0 -0.34375,0 -0.34375,0.21875 0,0.125 0.0781,0.125 0.3125,0.125 h 6 c 0.26562,0 0.28125,-0.0156 0.35937,-0.20312 z"
     id="path860" />
  <path
     d="m 187.09906,211.39523 c 0,-0.10938 -0.0781,-0.10938 -0.0937,-0.10938 -0.0312,0 -0.0781,0 -0.17188,0.125 l -0.82812,1 c -0.42188,-0.71875 -1.0781,-1.125 -1.9688,-1.125 -2.5781,0 -5.2656,2.625 -5.2656,5.4375 0,2 1.4062,3.2344 3.1406,3.2344 0.96875,0 1.7969,-0.40625 2.5,-0.98438 1.0312,-0.875 1.3438,-2.0312 1.3438,-2.1406 0,-0.0937 -0.0937,-0.0937 -0.125,-0.0937 -0.10938,0 -0.125,0.0625 -0.15625,0.10938 -0.54688,1.875 -2.1562,2.7656 -3.3594,2.7656 -1.2656,0 -2.3594,-0.8125 -2.3594,-2.5156 0,-0.375 0.125,-2.4531 1.4688,-4.0312 0.65625,-0.76562 1.7812,-1.4219 2.9219,-1.4219 1.3125,0 1.8906,1.0781 1.8906,2.2969 0,0.3125 -0.0312,0.57812 -0.0312,0.625 0,0.10938 0.125,0.10938 0.15625,0.10938 0.125,0 0.14062,-0.0156 0.1875,-0.23438 z"
     id="path862" />
  <path
     d="m 182.78906,93.799225 c -0.375,0.07813 -0.5625,0.34375 -0.5625,0.59375 0,0.29688 0.21875,0.39062 0.39062,0.39062 0.32813,0 0.60938,-0.29688 0.60938,-0.64062 0,-0.39062 -0.375,-0.71875 -0.96875,-0.71875 -0.48438,0 -1.0312,0.20312 -1.5312,0.9375 -0.0781,-0.625 -0.5625,-0.9375 -1.0469,-0.9375 -0.45312,0 -0.70312,0.35938 -0.84375,0.60938 -0.20312,0.4375 -0.375,1.1562 -0.375,1.2188 0,0.04687 0.0469,0.10938 0.125,0.10938 0.0937,0 0.10938,-0.01563 0.1875,-0.29688 0.17188,-0.71875 0.40625,-1.4062 0.875,-1.4062 0.29688,0 0.375,0.20312 0.375,0.54688 0,0.26562 -0.125,0.73438 -0.20312,1.1094 l -0.34375,1.2812 c -0.0469,0.23438 -0.17188,0.76562 -0.23438,0.98438 -0.0781,0.3125 -0.21875,0.875 -0.21875,0.9375 0,0.15625 0.14063,0.29688 0.3125,0.29688 0.14063,0 0.35938,-0.09375 0.4375,-0.32812 0.0312,-0.09375 0.46875,-1.9062 0.54688,-2.1719 0.0625,-0.26562 0.125,-0.51562 0.1875,-0.78125 0.0469,-0.17188 0.0937,-0.35938 0.14062,-0.51562 0.0312,-0.10938 0.35938,-0.6875 0.65625,-0.95312 0.14063,-0.125 0.45313,-0.40625 0.9375,-0.40625 0.1875,0 0.39063,0.03125 0.54688,0.14062 z"
     id="path864" />
  <g
     fill="none"
     stroke="#000000"
     stroke-miterlimit="10"
     stroke-width="0.514"
     id="g882"
     transform="translate(1.0190621,0.06522509)">
    <path
       d="M 149.04,85.938 H 107.11"
       stroke-dasharray="3.106, 3.106"
       id="path870" />
    <path
       d="M 149.04,164.94 H 107.11"
       stroke-dasharray="3.106, 3.106"
       id="path872" />
    <path
       d="m 153.65,164.94 h -1.5"
       id="path874" />
    <path
       d="m 153.65,85.938 h -1.5"
       id="path876" />
    <path
       d="m 105.56,164.94 h -1.5"
       id="path878" />
    <path
       d="m 105.56,85.938 h -1.5"
       id="path880" />
  </g>
  <path
     d="m 333.25949,178.21378 c -0.0625,0.20312 -0.0625,0.23438 -0.21875,0.45312 -0.26563,0.32812 -0.79688,0.84375 -1.3594,0.84375 -0.48437,0 -0.76562,-0.4375 -0.76562,-1.1406 0,-0.65625 0.375,-2 0.60937,-2.5 0.40625,-0.84375 0.96875,-1.2656 1.4219,-1.2656 0.79687,0 0.95312,0.98438 0.95312,1.0781 0,0.0156 -0.0312,0.15625 -0.0469,0.1875 z m 0.76562,-3.0625 c -0.125,-0.3125 -0.45312,-0.78125 -1.0781,-0.78125 -1.3438,0 -2.7969,1.7344 -2.7969,3.5156 0,1.1719 0.6875,1.875 1.5,1.875 0.65625,0 1.2188,-0.51562 1.5469,-0.90625 0.125,0.70312 0.6875,0.90625 1.0469,0.90625 0.35938,0 0.64063,-0.21875 0.85938,-0.65625 0.1875,-0.40625 0.35937,-1.125 0.35937,-1.1719 0,-0.0625 -0.0469,-0.10938 -0.125,-0.10938 -0.10937,0 -0.10937,0.0625 -0.15625,0.23438 -0.1875,0.70312 -0.40625,1.4531 -0.90625,1.4531 -0.34375,0 -0.35937,-0.3125 -0.35937,-0.54688 0,-0.26562 0.0312,-0.40625 0.14062,-0.875 0.0781,-0.29688 0.14063,-0.5625 0.23438,-0.90625 0.4375,-1.7969 0.54687,-2.2188 0.54687,-2.2969 0,-0.15625 -0.125,-0.29688 -0.3125,-0.29688 -0.375,0 -0.46875,0.42188 -0.5,0.5625 z"
     id="path826-3" />
  <path
     d="m 281.36134,123.56896 c -0.0625,0.20312 -0.0625,0.23438 -0.21875,0.45312 -0.26563,0.32812 -0.79688,0.84375 -1.3594,0.84375 -0.48437,0 -0.76562,-0.4375 -0.76562,-1.1406 0,-0.65625 0.375,-2 0.60937,-2.5 0.40625,-0.84375 0.96875,-1.2656 1.4219,-1.2656 0.79687,0 0.95312,0.98438 0.95312,1.0781 0,0.0156 -0.0312,0.15625 -0.0469,0.1875 z m 0.76562,-3.0625 c -0.125,-0.3125 -0.45312,-0.78125 -1.0781,-0.78125 -1.3438,0 -2.7969,1.7344 -2.7969,3.5156 0,1.1719 0.6875,1.875 1.5,1.875 0.65625,0 1.2188,-0.51562 1.5469,-0.90625 0.125,0.70312 0.6875,0.90625 1.0469,0.90625 0.35938,0 0.64063,-0.21875 0.85938,-0.65625 0.1875,-0.40625 0.35937,-1.125 0.35937,-1.1719 0,-0.0625 -0.0469,-0.10938 -0.125,-0.10938 -0.10937,0 -0.10937,0.0625 -0.15625,0.23438 -0.1875,0.70312 -0.40625,1.4531 -0.90625,1.4531 -0.34375,0 -0.35937,-0.3125 -0.35937,-0.54688 0,-0.26562 0.0312,-0.40625 0.14062,-0.875 0.0781,-0.29688 0.14063,-0.5625 0.23438,-0.90625 0.4375,-1.7969 0.54687,-2.2188 0.54687,-2.2969 0,-0.15625 -0.125,-0.29688 -0.3125,-0.29688 -0.375,0 -0.46875,0.42188 -0.5,0.5625 z"
     id="path826-6" />
  <path
     d="m 163.32556,12.786503 c 0.51562,-0.578119 0.9375,-0.953119 1.5312,-1.5 0.71875,-0.60938 1.0312,-0.90625 1.2031,-1.0938 0.82812,-0.8281204 1.25,-1.5156004 1.25,-1.6094004 0,-0.0938 -0.0937,-0.0937 -0.125,-0.0937 -0.0781,0 -0.10938,0.0469 -0.15625,0.125 -0.3125,0.51562 -0.59375,0.76562 -0.90625,0.76562 -0.25,0 -0.375,-0.10938 -0.60938,-0.39062 -0.25,-0.29688 -0.45312,-0.5 -0.79688,-0.5 -0.875,0 -1.4062,1.0781 -1.4062,1.3281 0,0.0469 0.0156,0.10938 0.125,0.10938 0.0937,0 0.10938,-0.0469 0.14062,-0.125 0.20312,-0.48438 0.78125,-0.5625 1,-0.5625 0.26562,0 0.5,0.0781 0.75,0.1875 0.45312,0.1875 0.64062,0.1875 0.76562,0.1875 h 0.1875 c -0.39062,0.4531204 -1.0312,1.0312004 -1.5781,1.5156004 l -1.2031,1.125 c -0.73438,0.73438 -1.1719,1.4375 -1.1719,1.5312 0,0.0625 0.0625,0.0937 0.125,0.0937 0.0781,0 0.0937,-0.0156 0.17188,-0.15625 0.1875,-0.29688 0.57812,-0.75 1.0156,-0.75 0.25,0 0.375,0.0937 0.60938,0.39062 0.23438,0.26562 0.4375,0.51562 0.8125,0.51562 1.1719,0 1.8438,-1.5312 1.8438,-1.7969 0,-0.0469 -0.0156,-0.125 -0.14062,-0.125 -0.0937,0 -0.0937,0.0469 -0.14062,0.17188 -0.26562,0.70312 -0.96875,0.98438 -1.4375,0.98438 -0.25,0 -0.48438,-0.0781 -0.73438,-0.1875 -0.48438,-0.1875 -0.60938,-0.1875 -0.76562,-0.1875 -0.125,0 -0.25,0 -0.35938,0.0469 z"
     id="path844-5" />
  <path
     style="fill:none;fill-rule:evenodd;stroke:#000000;stroke-width:0.75px;stroke-linecap:butt;stroke-linejoin:miter;stroke-opacity:1"
     d="m 152.17325,123.47133 3.91015,4.07811"
     id="path1410" />
  <path
     style="fill:none;fill-rule:evenodd;stroke:#000000;stroke-width:0.75px;stroke-linecap:butt;stroke-linejoin:miter;stroke-opacity:1"
     d="m 151.755,126.79943 4.49218,-3.32811"
     id="path1412" />
</svg>
